<svg width="194" height="142" viewBox="0 0 194 142" fill="none" xmlns="http://www.w3.org/2000/svg">
<path opacity="0.1" d="M112.719 25.9288C100.282 25.4876 88.4353 21.3744 77.1246 16.8749C65.814 12.3755 54.608 7.38844 42.4698 5.00394C34.6615 3.47093 25.7322 3.25463 19.4416 7.54123C13.3862 11.6613 11.4307 18.7925 10.38 25.3949C9.58853 30.3733 9.12326 35.6007 11.2899 40.2564C12.7956 43.4889 15.4688 46.2047 17.3178 49.3C23.7475 60.0723 19.2064 73.3561 12.2325 83.8743C8.97046 88.8081 5.17105 93.5153 2.64898 98.7667C0.126918 104.018 -1.04055 110.037 1.16562 115.395C3.35461 120.706 8.567 124.694 14.2137 127.499C25.6841 133.199 39.2009 134.829 52.3812 135.753C81.5576 137.798 110.89 136.912 140.144 136.026C150.97 135.696 161.843 135.365 172.494 133.65C178.407 132.697 184.512 131.187 188.805 127.537C194.256 122.902 195.607 115.062 191.953 109.254C185.833 99.5152 168.892 97.098 164.611 86.6399C162.253 80.8855 164.674 74.4754 168.099 69.1296C175.447 57.6809 187.764 47.6365 188.413 34.5484C188.86 25.5597 182.938 16.5573 173.784 12.3051C164.187 7.84165 150.881 8.40816 143.801 15.7865C136.511 23.3967 123.7 26.3202 112.719 25.9288Z" fill="#0452C7"/>
<path d="M100.833 110.042C101.036 108.705 101.763 107.503 102.852 106.701C103.941 105.9 105.305 105.563 106.642 105.767L136.897 110.366C138.234 110.57 139.436 111.296 140.238 112.385C141.04 113.475 141.376 114.838 141.173 116.175L140.789 118.697L100.45 112.564L100.833 110.042ZM99.6832 117.606L97.7666 130.212C97.5633 131.55 97.8996 132.913 98.7015 134.002C99.5033 135.092 100.705 135.818 102.042 136.021L132.297 140.621C133.634 140.824 134.998 140.488 136.087 139.686C137.177 138.884 137.903 137.682 138.106 136.345L140.023 123.739L99.6832 117.606ZM106.48 123.798L109.001 124.182C109.67 124.283 110.271 124.647 110.672 125.191C111.073 125.736 111.241 126.418 111.139 127.086L110.756 129.608C110.654 130.276 110.291 130.877 109.747 131.278C109.202 131.679 108.52 131.847 107.852 131.745L105.33 131.362C104.662 131.26 104.061 130.897 103.66 130.353C103.259 129.808 103.091 129.126 103.192 128.458L103.576 125.936C103.677 125.268 104.04 124.667 104.585 124.266C105.13 123.865 105.812 123.697 106.48 123.798V123.798Z" fill="#0342A1"/>
<path d="M61.5436 109.728L55.3982 103.583C55.1736 103.358 54.9082 103.318 54.7653 103.318C54.6224 103.318 54.3569 103.358 54.1324 103.583L47.9665 109.749C47.2724 110.443 46.1903 111.566 42.5765 111.566L50.1511 119.12C51.2995 120.267 52.8563 120.911 54.4794 120.911C56.1026 120.911 57.6593 120.267 58.8078 119.12L66.4028 111.545C64.5449 111.545 62.9932 111.178 61.5436 109.728V109.728ZM47.9665 91.2513L54.1324 97.4171C54.2957 97.5804 54.5407 97.6825 54.7653 97.6825C54.9899 97.6825 55.2349 97.5804 55.3982 97.4171L61.5028 91.3125C62.9524 89.8017 64.6061 89.4546 66.464 89.4546L58.869 81.88C57.7206 80.733 56.1638 80.0887 54.5407 80.0887C52.9176 80.0887 51.3608 80.733 50.2124 81.88L42.6378 89.4342C46.2311 89.4342 47.3336 90.6184 47.9665 91.2513V91.2513Z" fill="#0342A1"/>
<path d="M73.0996 96.1104L68.5059 91.4963H65.9334C64.8309 91.4963 63.7284 91.9454 62.973 92.7417L56.848 98.8667C56.2763 99.4384 55.5209 99.7242 54.7655 99.7242C53.9876 99.7132 53.243 99.4067 52.683 98.8667L46.5172 92.6804C45.7413 91.9046 44.6797 91.4554 43.5567 91.4554H40.5555L35.8801 96.1513C34.7331 97.2997 34.0888 98.8565 34.0888 100.48C34.0888 102.103 34.7331 103.66 35.8801 104.808L40.5555 109.504H43.5772C44.6797 109.504 45.7413 109.055 46.5376 108.279L52.7034 102.113C53.2751 101.541 54.0305 101.255 54.7859 101.255C55.5413 101.255 56.2967 101.541 56.8684 102.113L63.0138 108.258C63.7896 109.034 64.8513 109.483 65.9742 109.483H68.5467L73.1405 104.869C74.2923 103.7 74.9346 102.123 74.9269 100.481C74.9193 98.8402 74.2623 97.2688 73.0996 96.1104V96.1104Z" fill="#0342A1"/>
<g clip-path="url(#clip0_102_48)">
<path d="M152.353 15.7726L98.574 9.81165C97.5552 9.69872 96.5333 9.99514 95.733 10.6357C94.9328 11.2762 94.4198 12.2084 94.3068 13.2272L86.6427 82.3713C86.5298 83.3901 86.8262 84.412 87.4667 85.2123C88.1073 86.0125 89.0395 86.5255 90.0583 86.6384L143.837 92.5994C144.856 92.7124 145.878 92.416 146.678 91.7754C147.478 91.1349 147.991 90.2027 148.104 89.1839L155.768 20.0398C155.881 19.021 155.585 17.9991 154.944 17.1988C154.304 16.3986 153.371 15.8856 152.353 15.7726V15.7726Z" stroke="#0342A1" stroke-width="4" stroke-linecap="round" stroke-linejoin="round"/>
<path d="M106.483 61.2394L133.373 64.2199" stroke="#0342A1" stroke-width="4" stroke-linecap="round" stroke-linejoin="round"/>
<path d="M105.206 72.7633L118.651 74.2536" stroke="#0342A1" stroke-width="4" stroke-linecap="round" stroke-linejoin="round"/>
<path d="M135.071 31.3555L118.003 45.0177L111.172 36.4835" stroke="#0342A1" stroke-width="4" stroke-linecap="round" stroke-linejoin="round"/>
</g>
<defs>
<clipPath id="clip0_102_48">
<rect width="92.7568" height="92.7568" fill="white" transform="translate(80.2189) rotate(6.32501)"/>
</clipPath>
</defs>
</svg>
