<svg width="194" height="133" viewBox="0 0 194 133" fill="none" xmlns="http://www.w3.org/2000/svg">
<path opacity="0.1" d="M112.719 21.9288C100.282 21.4876 88.4353 17.3744 77.1246 12.8749C65.814 8.37546 54.608 3.38844 42.4698 1.00394C34.6615 -0.529071 25.7322 -0.745375 19.4416 3.54123C13.3862 7.66131 11.4307 14.7925 10.38 21.3949C9.58853 26.3733 9.12326 31.6007 11.2899 36.2564C12.7956 39.4889 15.4688 42.2047 17.3178 45.3C23.7475 56.0723 19.2064 69.3561 12.2325 79.8743C8.97046 84.8081 5.17105 89.5153 2.64898 94.7667C0.126918 100.018 -1.04055 106.037 1.16562 111.395C3.35461 116.706 8.567 120.694 14.2137 123.499C25.6841 129.199 39.2009 130.829 52.3812 131.753C81.5576 133.798 110.89 132.912 140.144 132.026C150.97 131.696 161.843 131.365 172.494 129.65C178.407 128.697 184.512 127.187 188.805 123.537C194.256 118.902 195.607 111.062 191.953 105.254C185.833 95.5152 168.892 93.098 164.611 82.6399C162.253 76.8855 164.674 70.4754 168.099 65.1296C175.447 53.6809 187.764 43.6365 188.413 30.5484C188.86 21.5597 182.938 12.5573 173.784 8.30507C164.187 3.84165 150.881 4.40816 143.801 11.7865C136.511 19.3967 123.7 22.3202 112.719 21.9288Z" fill="#0452C7"/>
<path d="M58.8074 38.5029C59.241 35.6515 60.7895 33.089 63.1123 31.3792C65.4351 29.6695 68.342 28.9525 71.1935 29.386L135.702 39.1935C138.554 39.627 141.116 41.1755 142.826 43.4984C144.536 45.8212 145.253 48.7281 144.819 51.5795L144.002 56.9553L57.9901 43.8786L58.8074 38.5029ZM56.3556 54.6301L52.2691 81.5087C51.8356 84.3602 52.5526 87.2671 54.2623 89.5899C55.9721 91.9128 58.5345 93.4613 61.386 93.8948L125.895 103.702C128.746 104.136 131.653 103.419 133.976 101.709C136.299 99.9993 137.847 97.4368 138.281 94.5854L142.367 67.7067L56.3556 54.6301ZM70.8482 67.8334L76.2239 68.6507C77.6496 68.8675 78.9309 69.6417 79.7857 70.8031C80.6406 71.9646 80.9991 73.418 80.7823 74.8437L79.9651 80.2195C79.7483 81.6452 78.974 82.9264 77.8126 83.7813C76.6512 84.6362 75.1978 84.9947 73.772 84.7779L68.3963 83.9606C66.9706 83.7438 65.6893 82.9696 64.8345 81.8082C63.9796 80.6468 63.6211 79.1933 63.8379 77.7676L64.6552 72.3919C64.8719 70.9661 65.6462 69.6849 66.8076 68.83C67.969 67.9752 69.4224 67.6167 70.8482 67.8334V67.8334Z" fill="#0342A1"/>
</svg>
