<svg width="151" height="85" viewBox="0 0 151 85" fill="none" xmlns="http://www.w3.org/2000/svg">
<g clip-path="url(#clip0_161_1558)">
<path opacity="0.1" d="M84.0682 11.593C75.3565 11.543 67.0062 9.31831 59.023 6.85464C51.0398 4.39098 43.1275 1.64662 34.5951 0.440497C29.1075 -0.332091 22.8538 -0.308471 18.5118 2.3275C14.3339 4.86481 13.0659 9.10015 12.425 13.0173C11.9412 15.9645 11.6909 19.0604 13.2759 21.7714C14.3756 23.6529 16.2845 25.2106 17.6234 27.0058C22.2796 33.2519 19.2918 41.1653 14.5647 47.4892C12.3402 50.4558 9.75975 53.2975 8.06912 56.4378C6.37849 59.5782 5.64857 63.1507 7.26968 66.2731C8.87689 69.369 12.5835 71.6339 16.5765 73.1944C24.6876 76.3612 34.1724 77.0935 43.4097 77.4144C63.8627 78.1259 84.3825 77.1059 104.847 76.0874C112.421 75.7095 120.028 75.3287 127.457 74.1421C131.584 73.4806 135.837 72.4843 138.79 70.2597C142.544 67.4333 143.378 62.7839 140.736 59.4212C136.31 53.7783 124.417 52.6374 121.272 46.5429C119.539 43.1871 121.141 39.3645 123.463 36.1574C128.443 29.2778 136.92 23.1415 137.187 15.4101C137.37 10.0992 133.097 4.88843 126.627 2.53454C119.837 0.0583702 110.536 0.614189 105.681 5.08853C100.687 9.69488 91.7664 11.6375 84.0682 11.593Z" fill="#0452C7"/>
<path d="M79.1146 33.8966C79.1146 33.8966 75.294 27.1309 69.538 25.1814C67.119 24.3786 65.0257 22.8135 63.5722 20.7209C62.8899 19.7223 62.3007 18.6632 61.812 17.5569" stroke="#535461" stroke-width="2" stroke-miterlimit="10"/>
<path d="M58.1946 16.3063C58.8494 16.9427 61.904 17.6 61.904 17.6C61.904 17.6 61.1546 14.5694 60.4997 13.933C60.1848 13.6275 59.7614 13.4595 59.3226 13.466C58.8837 13.4725 58.4655 13.653 58.1598 13.9677C57.8541 14.2824 57.686 14.7056 57.6926 15.1442C57.6991 15.5828 57.8797 16.0008 58.1946 16.3063Z" fill="#0452C7"/>
<path d="M59.9283 21.7951C60.8251 21.9729 63.7475 20.8655 63.7475 20.8655C63.7475 20.8655 61.4577 18.7256 60.5665 18.5477C60.1356 18.4631 59.6888 18.5531 59.3243 18.7978C58.9598 19.0425 58.7075 19.4218 58.6228 19.8525C58.5382 20.2831 58.6282 20.7297 58.873 21.094C59.1179 21.4583 59.4975 21.7105 59.9283 21.7951Z" fill="#0452C7"/>
<path d="M66.2129 27.727C67.0763 27.4283 69.0394 24.9993 69.0394 24.9993C69.0394 24.9993 65.9946 24.3046 65.1312 24.6019C64.923 24.6706 64.7306 24.78 64.5651 24.9237C64.3996 25.0674 64.2643 25.2425 64.1671 25.4389C64.0699 25.6353 64.0127 25.849 63.9989 26.0677C63.9851 26.2864 64.0149 26.5056 64.0865 26.7127C64.1582 26.9197 64.2703 27.1105 64.4164 27.2739C64.5625 27.4372 64.7396 27.57 64.9374 27.6644C65.1352 27.7587 65.3499 27.8129 65.5688 27.8236C65.7878 27.8344 66.0067 27.8016 66.2129 27.727Z" fill="#0452C7"/>
<path d="M71.9853 31.1481C72.8863 30.9994 75.2318 28.9359 75.2318 28.9359C75.2318 28.9359 72.3482 27.7353 71.4459 27.884C71.0128 27.9555 70.6259 28.196 70.3702 28.5527C70.1146 28.9093 70.0111 29.3528 70.0827 29.7856C70.1542 30.2185 70.3949 30.6052 70.7517 30.8607C71.1085 31.1162 71.5523 31.2196 71.9853 31.1481Z" fill="#0452C7"/>
<path d="M66.2865 18.4935C66.2865 19.4078 64.6334 22.0563 64.6334 22.0563C64.6334 22.0563 62.9775 19.4092 62.9775 18.4949C62.9775 18.0563 63.1518 17.6357 63.4621 17.3256C63.7724 17.0155 64.1932 16.8413 64.632 16.8413C65.0708 16.8413 65.4916 17.0155 65.8019 17.3256C66.1122 17.6357 66.2865 18.0563 66.2865 18.4949V18.4935Z" fill="#0452C7"/>
<path d="M72.9863 22.5788C72.7083 23.4514 70.3447 25.4843 70.3447 25.4843C70.3447 25.4843 69.5578 22.462 69.8303 21.5936C69.9614 21.1749 70.2535 20.8255 70.6424 20.6221C71.0313 20.4187 71.4851 20.378 71.904 20.509C72.3228 20.64 72.6725 20.932 72.876 21.3207C73.0795 21.7093 73.1202 22.1629 72.9891 22.5815L72.9863 22.5788Z" fill="#0452C7"/>
<path d="M78.9518 27.4422C78.8309 28.3481 76.8372 30.7535 76.8372 30.7535C76.8372 30.7535 75.5511 27.9077 75.6721 27.0017C75.7305 26.567 75.9594 26.1733 76.3082 25.9073C76.6571 25.6412 77.0974 25.5245 77.5323 25.5829C77.9673 25.6414 78.3611 25.8701 78.6274 26.2187C78.8936 26.5674 79.0103 27.0075 78.9518 27.4422Z" fill="#0452C7"/>
<path opacity="0.25" d="M58.1946 16.3063C58.8494 16.9427 61.904 17.6 61.904 17.6C61.904 17.6 61.1546 14.5694 60.4997 13.933C60.1848 13.6275 59.7614 13.4595 59.3226 13.466C58.8837 13.4725 58.4655 13.653 58.1598 13.9677C57.8541 14.2824 57.686 14.7056 57.6926 15.1442C57.6991 15.5828 57.8797 16.0008 58.1946 16.3063Z" fill="black"/>
<path opacity="0.25" d="M59.9283 21.7951C60.8251 21.9729 63.7475 20.8655 63.7475 20.8655C63.7475 20.8655 61.4577 18.7256 60.5665 18.5477C60.1356 18.4631 59.6888 18.5531 59.3243 18.7978C58.9598 19.0425 58.7075 19.4218 58.6228 19.8525C58.5382 20.2831 58.6282 20.7297 58.873 21.094C59.1179 21.4583 59.4975 21.7105 59.9283 21.7951Z" fill="black"/>
<path opacity="0.25" d="M66.2129 27.727C67.0763 27.4283 69.0394 24.9993 69.0394 24.9993C69.0394 24.9993 65.9946 24.3046 65.1312 24.6019C64.923 24.6706 64.7306 24.78 64.5651 24.9237C64.3996 25.0674 64.2643 25.2425 64.1671 25.4389C64.0699 25.6353 64.0127 25.849 63.9989 26.0677C63.9851 26.2864 64.0149 26.5056 64.0865 26.7127C64.1582 26.9197 64.2703 27.1105 64.4164 27.2739C64.5625 27.4372 64.7396 27.57 64.9374 27.6644C65.1352 27.7587 65.3499 27.8129 65.5688 27.8236C65.7878 27.8344 66.0067 27.8016 66.2129 27.727Z" fill="black"/>
<path opacity="0.25" d="M71.9853 31.1481C72.8863 30.9994 75.2318 28.9359 75.2318 28.9359C75.2318 28.9359 72.3482 27.7353 71.4459 27.884C71.0128 27.9555 70.6259 28.196 70.3702 28.5527C70.1146 28.9093 70.0111 29.3528 70.0827 29.7856C70.1542 30.2185 70.3949 30.6052 70.7517 30.8607C71.1085 31.1162 71.5523 31.2196 71.9853 31.1481Z" fill="black"/>
<path opacity="0.25" d="M66.2865 18.4935C66.2865 19.4078 64.6334 22.0563 64.6334 22.0563C64.6334 22.0563 62.9775 19.4092 62.9775 18.4949C62.9775 18.0563 63.1518 17.6357 63.4621 17.3256C63.7724 17.0155 64.1932 16.8413 64.632 16.8413C65.0708 16.8413 65.4916 17.0155 65.8019 17.3256C66.1122 17.6357 66.2865 18.0563 66.2865 18.4949V18.4935Z" fill="black"/>
<path opacity="0.25" d="M72.9863 22.5788C72.7083 23.4514 70.3447 25.4843 70.3447 25.4843C70.3447 25.4843 69.5578 22.462 69.8303 21.5936C69.9614 21.1749 70.2535 20.8255 70.6424 20.6221C71.0313 20.4187 71.4851 20.378 71.904 20.509C72.3228 20.64 72.6725 20.932 72.876 21.3207C73.0795 21.7093 73.1202 22.1629 72.9891 22.5815L72.9863 22.5788Z" fill="black"/>
<path opacity="0.25" d="M78.9518 27.4422C78.8309 28.3481 76.8372 30.7535 76.8372 30.7535C76.8372 30.7535 75.5511 27.9077 75.6721 27.0017C75.7305 26.567 75.9594 26.1733 76.3082 25.9073C76.6571 25.6412 77.0974 25.5245 77.5323 25.5829C77.9673 25.6414 78.3611 25.8701 78.6274 26.2187C78.8936 26.5674 79.0103 27.0075 78.9518 27.4422Z" fill="black"/>
<path d="M78.8964 33.7632C78.8964 33.7632 78.1457 26.029 73.6758 21.9159C71.7892 20.2029 70.5096 17.9244 70.029 15.4226C69.8104 14.2331 69.7015 13.0261 69.7036 11.8167" stroke="#535461" stroke-width="2" stroke-miterlimit="10"/>
<path d="M66.9021 9.20713C67.2428 10.0548 69.769 11.8931 69.769 11.8931C69.769 11.8931 70.3126 8.81805 69.9706 7.97043C69.8917 7.76569 69.7729 7.57867 69.6211 7.42026C69.4692 7.26186 69.2874 7.13524 69.0861 7.04778C68.8848 6.96031 68.6681 6.91376 68.4486 6.91082C68.2291 6.90789 68.0112 6.94863 67.8077 7.03067C67.6041 7.11272 67.4189 7.23443 67.2629 7.38872C67.1068 7.543 66.9831 7.72677 66.8988 7.92934C66.8145 8.1319 66.7714 8.34919 66.772 8.56857C66.7726 8.78794 66.8168 9.00501 66.9021 9.20713Z" fill="#0452C7"/>
<path d="M66.2573 14.9223C67.0053 15.4476 70.1238 15.6171 70.1238 15.6171C70.1238 15.6171 68.9086 12.7408 68.162 12.2155C67.8031 11.9631 67.3585 11.8635 66.926 11.9387C66.4936 12.0138 66.1088 12.2576 65.8562 12.6164C65.6036 12.9752 65.504 13.4195 65.5792 13.8517C65.6544 14.2839 65.8983 14.6685 66.2573 14.921V14.9223Z" fill="#0452C7"/>
<path d="M69.6021 22.8969C70.5128 22.9734 73.292 21.5463 73.292 21.5463C73.292 21.5463 70.7894 19.6774 69.8788 19.6009C69.4414 19.5641 69.0074 19.7024 68.6721 19.9854C68.3368 20.2684 68.1277 20.6729 68.0908 21.11C68.0539 21.5471 68.1923 21.9809 68.4755 22.316C68.7586 22.6511 69.1634 22.8601 69.6007 22.8969H69.6021Z" fill="#0452C7"/>
<path d="M73.4922 28.3606C74.3764 28.5899 77.3573 27.6534 77.3573 27.6534C77.3573 27.6534 75.2065 25.3884 74.3222 25.1522C74.1083 25.0847 73.8829 25.0615 73.6597 25.0838C73.4366 25.1061 73.2203 25.1735 73.024 25.282C72.8277 25.3904 72.6555 25.5376 72.5179 25.7147C72.3803 25.8917 72.2801 26.0948 72.2235 26.3117C72.1669 26.5286 72.155 26.7548 72.1885 26.9764C72.2221 27.1981 72.3004 27.4106 72.4186 27.6011C72.5369 27.7915 72.6927 27.956 72.8765 28.0844C73.0604 28.2128 73.2684 28.3026 73.488 28.3481L73.4922 28.3606Z" fill="#0452C7"/>
<path d="M73.4143 14.4846C73.0444 15.3183 70.4585 17.072 70.4585 17.072C70.4585 17.072 70.0177 13.9816 70.3875 13.1465C70.5651 12.7453 70.8948 12.4311 71.3042 12.2729C71.7135 12.1148 72.169 12.1256 72.5703 12.303C72.9717 12.4805 73.2861 12.81 73.4444 13.2191C73.6026 13.6283 73.5918 14.0835 73.4143 14.4846Z" fill="#0452C7"/>
<path d="M77.8815 20.9335C77.2781 21.6186 74.2861 22.5176 74.2861 22.5176C74.2861 22.5176 74.7908 19.437 75.3984 18.7505C75.5418 18.5873 75.716 18.4539 75.911 18.358C76.106 18.262 76.318 18.2054 76.5349 18.1913C76.7518 18.1773 76.9693 18.206 77.1751 18.276C77.3808 18.346 77.5708 18.4557 77.7341 18.5991C77.8975 18.7424 78.0309 18.9165 78.1269 19.1114C78.2229 19.3063 78.2796 19.5182 78.2937 19.7349C78.3077 19.9517 78.2789 20.1691 78.2089 20.3748C78.1389 20.5804 78.0291 20.7703 77.8857 20.9335H77.8815Z" fill="#0452C7"/>
<path d="M81.3643 27.7951C80.886 28.5733 78.0886 29.9656 78.0886 29.9656C78.0886 29.9656 78.0649 26.8433 78.5432 26.0637C78.7791 25.7032 79.1464 25.4488 79.567 25.3546C79.9876 25.2603 80.4284 25.3337 80.7957 25.5592C81.163 25.7846 81.4279 26.1443 81.5341 26.5618C81.6402 26.9793 81.5793 27.4218 81.3643 27.7951Z" fill="#0452C7"/>
<path opacity="0.1" d="M114.911 82.9421C115.321 83.7758 112.42 84.6721 108.826 84.9305C105.606 85.1626 102.959 84.7846 102.624 84.1065C102.289 83.4284 104.339 82.6058 107.49 82.2348C111.006 81.8235 114.501 82.1167 114.911 82.9421Z" fill="#0452C7"/>
<path d="M30.4131 38.8448L74.7059 23.1665V77.3297L30.4131 76.407V38.8448Z" fill="white"/>
<path opacity="0.2" d="M30.4131 38.8448L74.7059 23.1665V77.3297L30.4131 76.407V38.8448Z" fill="#0452C7"/>
<path d="M0 47.7893L25.2691 38.8448V76.407H0V47.7893Z" fill="white"/>
<path opacity="0.2" d="M0 47.7893L25.2691 38.8448V76.407H0V47.7893Z" fill="#0452C7"/>
<path d="M74.7061 23.1665L118.998 38.8448V76.407L74.7061 77.3297V23.1665Z" fill="white"/>
<path opacity="0.5" d="M74.7061 23.1665L118.998 38.8448V76.407L74.7061 77.3297V23.1665Z" fill="#0452C7"/>
<path d="M149.868 47.9019L124.281 38.8448V76.407H149.868V47.9019Z" fill="white"/>
<path opacity="0.5" d="M149.868 47.9019L124.281 38.8448V76.407H149.868V47.9019Z" fill="#0452C7"/>
<path d="M14.725 54.3104C14.5457 54.3104 14.3997 54.555 14.3997 54.8565V61.6542C14.4092 62.3249 14.251 62.9874 13.9395 63.5815C13.6489 64.0915 13.204 64.4152 12.7786 64.4152H12.5005C12.0834 64.4152 11.6747 64.104 11.3549 63.5551C11.0215 62.9626 10.8476 62.2937 10.8502 61.6139V52.8431C10.8415 52.3582 10.9666 51.8804 11.2117 51.4619C11.4439 51.095 11.7484 50.8922 12.0681 50.8922C12.3879 50.8922 12.6813 51.095 12.9023 51.4591C13.1368 51.8841 13.2548 52.3634 13.2443 52.8486V61.0386C13.2443 61.6361 12.9663 62.1642 12.6382 62.1642C12.3601 62.1642 12.0487 61.714 12.0487 61.0386V56.3614C12.0487 56.0613 11.9027 55.8153 11.7233 55.8153C11.544 55.8153 11.3966 56.0613 11.3966 56.3614V61.0331C11.3966 62.2753 11.9305 63.2119 12.6382 63.2119C12.983 63.2119 13.3014 62.9979 13.5308 62.6074C13.7873 62.1233 13.9133 61.5807 13.8964 61.0331V52.8431C13.9107 52.0873 13.7231 51.3414 13.3528 50.6823C13.008 50.1057 12.5478 49.7903 12.057 49.7903C11.5662 49.7903 11.106 50.1057 10.7571 50.6823C10.3859 51.3425 10.1986 52.0901 10.2148 52.8473V61.6167C10.2148 62.6213 10.4707 63.6413 10.8961 64.3444C11.3215 65.0475 11.8971 65.456 12.4866 65.456H12.7716C13.3486 65.456 13.927 65.0475 14.358 64.3333C14.5811 63.9561 14.7492 63.549 14.8571 63.1243C14.9817 62.6433 15.0443 62.1483 15.0434 61.6514V54.8426C15.0434 54.5411 14.9044 54.2966 14.7195 54.2966L14.725 54.3104Z" fill="white"/>
<path d="M76.9694 69.4454C76.9694 69.4454 77.7939 70.5237 76.5885 72.1508C75.3831 73.778 74.3876 75.1536 74.7908 76.1652C74.7908 76.1652 76.6093 73.143 78.0886 73.1082C79.5679 73.0735 78.5961 71.2629 76.9694 69.4454Z" fill="#0452C7"/>
<path opacity="0.1" d="M76.9698 69.4454C77.0413 69.5501 77.098 69.6642 77.138 69.7845C78.5811 71.4797 79.35 73.061 77.9625 73.1013C76.6695 73.1388 75.1193 75.4483 74.748 76.0319C74.7595 76.0791 74.7739 76.1255 74.7911 76.1708C74.7911 76.1708 76.6097 73.1486 78.089 73.1138C79.5683 73.0791 78.5964 71.2629 76.9698 69.4454Z" fill="black"/>
<path d="M78.502 70.8197C78.502 71.199 78.4589 71.5061 78.4061 71.5061C78.3532 71.5061 78.3115 71.199 78.3115 70.8197C78.3115 70.4403 78.3644 70.6182 78.4172 70.6182C78.47 70.6182 78.502 70.4403 78.502 70.8197Z" fill="#FFD037"/>
<path d="M79.0275 71.2727C78.6953 71.4533 78.4047 71.5631 78.3797 71.5173C78.3546 71.4714 78.6035 71.2866 78.9358 71.1004C79.268 70.9142 79.1374 71.0517 79.1624 71.1004C79.1874 71.149 79.3612 71.0906 79.0275 71.2727Z" fill="#FFD037"/>
<path d="M72.6135 69.4454C72.6135 69.4454 71.789 70.5237 72.9944 72.1508C74.1998 73.778 75.1925 75.1536 74.7907 76.1652C74.7907 76.1652 72.9735 73.143 71.4929 73.1082C70.0122 73.0735 70.9854 71.2629 72.6135 69.4454Z" fill="#0452C7"/>
<path opacity="0.1" d="M72.6134 69.4454C72.5419 69.5501 72.4853 69.6642 72.4452 69.7845C71.0007 71.4797 70.2318 73.061 71.6208 73.1013C72.9124 73.1388 74.4639 75.4483 74.8352 76.0319C74.8233 76.0791 74.8084 76.1255 74.7907 76.1708C74.7907 76.1708 72.9735 73.1486 71.4929 73.1138C70.0122 73.0791 70.9854 71.2629 72.6134 69.4454Z" fill="black"/>
<path d="M71.0815 70.8197C71.0815 71.199 71.1233 71.5061 71.1761 71.5061C71.2289 71.5061 71.272 71.199 71.272 70.8197C71.272 70.4403 71.2178 70.6182 71.1664 70.6182C71.1149 70.6182 71.0815 70.4403 71.0815 70.8197Z" fill="#FFD037"/>
<path d="M70.5549 71.2727C70.8886 71.4533 71.1791 71.5631 71.2041 71.5173C71.2292 71.4714 70.9803 71.2866 70.648 71.1004C70.3158 70.9142 70.4464 71.0517 70.4214 71.1004C70.3964 71.149 70.2171 71.0906 70.5549 71.2727Z" fill="#FFD037"/>
<path opacity="0.1" d="M74.7909 84.4081C79.5516 84.4081 83.4109 83.8164 83.4109 83.0866C83.4109 82.3568 79.5516 81.7651 74.7909 81.7651C70.0302 81.7651 66.1709 82.3568 66.1709 83.0866C66.1709 83.8164 70.0302 84.4081 74.7909 84.4081Z" fill="#0452C7"/>
<path d="M79.2288 74.7132L79.1871 75.0494L79.1287 75.5247L79.1051 75.722L79.0467 76.1986L79.0217 76.3959L78.9646 76.8711L78.3042 82.2765C78.2458 82.7587 77.4575 83.1352 76.5052 83.1352H73.078C72.1256 83.1352 71.3387 82.7587 71.2789 82.2765L70.6185 76.8711L70.5601 76.3959L70.5365 76.1986L70.4781 75.722L70.4531 75.5247L70.3961 75.0494L70.3544 74.7132C70.321 74.4353 70.7478 74.2088 71.2873 74.2088H78.2973C78.8367 74.2088 79.2622 74.4394 79.2288 74.7132Z" fill="#444053"/>
<path d="M79.187 75.0494L79.1286 75.5247H70.453L70.396 75.0494H79.187Z" fill="#9D9CB5"/>
<path d="M79.105 75.7234L79.0466 76.1986H70.5364L70.478 75.7234H79.105Z" fill="#9D9CB5"/>
<path d="M79.022 76.3973L78.965 76.8725H70.6189L70.5605 76.3973H79.022Z" fill="#9D9CB5"/>
<path d="M58.0322 45.3618L56.7045 47.1251C56.6934 47.1415 56.6778 47.1544 56.6595 47.162C56.6412 47.1697 56.6211 47.1718 56.6016 47.1682L55.2293 46.8402C55.2034 46.8304 55.1808 46.8135 55.164 46.7913C55.1473 46.7692 55.1372 46.7428 55.1348 46.7152L54.8901 44.899C54.8828 44.8504 54.8942 44.8007 54.9221 44.7601L56.247 42.9995C56.2967 42.9289 56.3207 42.8434 56.3151 42.7572C56.3095 42.6711 56.2747 42.5894 56.2165 42.5257C55.9655 42.2754 55.6307 42.1268 55.2766 42.1088C55.2572 42.1067 55.2376 42.1067 55.2182 42.1088C54.8484 42.1366 54.0559 42.4104 53.4442 43.2705C52.8505 44.1042 52.229 45.6411 52.7796 47.3585C52.8449 47.5656 52.9186 47.8393 52.6989 48.1297C52.4793 48.4202 46.797 55.4944 46.797 55.4944C46.2645 56.1016 46.3035 57.2243 46.797 57.8774C46.902 58.0265 47.0401 58.1493 47.2005 58.2361C47.3609 58.3229 47.5393 58.3714 47.7216 58.3777C47.8991 58.3744 48.0728 58.3255 48.226 58.2357C48.3792 58.1459 48.5066 58.0182 48.5961 57.8649C48.5961 57.8649 53.8988 50.3892 54.1574 50.0487C54.1922 49.9918 54.2401 49.944 54.2972 49.9094C54.3543 49.8748 54.4189 49.8545 54.4855 49.85C54.5773 49.8548 54.6656 49.8872 54.7385 49.9431C55.0206 50.1356 55.355 50.237 55.6965 50.2335C56.489 50.2335 57.3218 49.7472 57.8306 49.0746C58.3553 48.3985 58.6605 47.578 58.7051 46.7235C58.7227 46.2572 58.6137 45.7948 58.3895 45.3854C58.3747 45.3518 58.3512 45.3229 58.3214 45.3016C58.2915 45.2803 58.2565 45.2674 58.2199 45.2642C58.1834 45.2611 58.1467 45.2679 58.1137 45.2838C58.0806 45.2998 58.0525 45.3243 58.0322 45.3548V45.3618ZM48.0219 57.027C47.9899 57.0758 47.9463 57.1158 47.8949 57.1435C47.8436 57.1712 47.7862 57.1857 47.7278 57.1857C47.6695 57.1857 47.6121 57.1712 47.5608 57.1435C47.5094 57.1158 47.4658 57.0758 47.4338 57.027C47.3561 56.9121 47.3146 56.7766 47.3146 56.638C47.3146 56.4993 47.3561 56.3638 47.4338 56.2489C47.4658 56.2001 47.5094 56.1601 47.5608 56.1324C47.6121 56.1047 47.6695 56.0903 47.7278 56.0903C47.7862 56.0903 47.8436 56.1047 47.8949 56.1324C47.9463 56.1601 47.9899 56.2001 48.0219 56.2489C48.0998 56.3636 48.1416 56.4991 48.1418 56.6377C48.1421 56.7764 48.1008 56.912 48.0233 57.027H48.0219Z" fill="white"/>
<path d="M105.04 48.7703C104.673 44.5294 101.796 41.2251 98.297 41.2251C95.9807 41.2251 93.9411 42.6688 92.7162 44.8741C92.3403 44.6792 91.9232 44.5768 91.4997 44.5753C89.7312 44.5753 88.302 46.5207 88.27 48.7134C86.4626 49.4304 85.2725 51.6314 85.2725 53.9409C85.2725 56.7714 87.1132 59.2698 89.3823 59.2698H104.32C106.59 59.2698 108.431 56.7686 108.431 53.9409C108.431 51.4202 106.966 49.1983 105.04 48.7703ZM101.666 47.7977L95.6192 55.3707C95.5414 55.4666 95.3412 55.6806 95.0937 55.6806C94.9877 55.6682 94.8856 55.6332 94.7944 55.5778C94.7033 55.5224 94.6251 55.4479 94.5654 55.3596L92.028 52.1984C91.993 52.1522 91.974 52.0958 91.974 52.0379C91.974 51.9799 91.993 51.9235 92.028 51.8774L92.833 50.8741C92.8475 50.8538 92.8664 50.8372 92.8884 50.8254C92.9103 50.8135 92.9347 50.8069 92.9596 50.806C92.9845 50.8068 93.0089 50.8134 93.0308 50.8252C93.0528 50.837 93.0717 50.8538 93.0861 50.8741L95.0951 53.3753L100.612 46.4456C100.627 46.4256 100.646 46.4091 100.667 46.3973C100.689 46.3855 100.714 46.3788 100.738 46.3775C100.763 46.3777 100.788 46.3839 100.81 46.3958C100.832 46.4077 100.851 46.4248 100.865 46.4456L101.656 47.4669C101.695 47.5121 101.717 47.5691 101.719 47.6285C101.72 47.6879 101.702 47.7462 101.666 47.7935V47.7977Z" fill="white"/>
<path d="M141.657 55.486C142.416 55.486 143.032 54.6654 143.032 53.6532C143.032 52.641 142.416 51.8204 141.657 51.8204C140.897 51.8204 140.282 52.641 140.282 53.6532C140.282 54.6654 140.897 55.486 141.657 55.486Z" fill="white"/>
<path d="M141.657 56.1933C141.506 56.1926 141.355 56.1682 141.211 56.121L139.854 57.965C139.843 57.9805 139.836 57.9992 139.836 58.0185C139.836 58.0377 139.843 58.0565 139.854 58.072L142.01 61.129C142.082 61.2324 142.12 61.3549 142.12 61.4805C142.12 61.6061 142.082 61.7287 142.01 61.8321C141.98 61.8738 141.94 61.9081 141.894 61.9321C141.849 61.9562 141.798 61.9695 141.746 61.971C141.695 61.9696 141.644 61.9564 141.599 61.9323C141.553 61.9082 141.514 61.8739 141.483 61.8321L139.335 58.7751C139.331 58.7682 139.325 58.7625 139.317 58.7586C139.31 58.7547 139.302 58.7527 139.294 58.7527C139.285 58.7527 139.277 58.7547 139.27 58.7586C139.263 58.7625 139.257 58.7682 139.252 58.7751L138.728 59.4865C138.29 60.0785 137.709 59.9895 137.083 59.9937C136.457 59.9979 135.85 59.6421 135.405 59.0419L134.902 58.3582C134.897 58.3513 134.891 58.3457 134.884 58.3418C134.876 58.3379 134.868 58.3358 134.86 58.3358C134.852 58.3358 134.844 58.3379 134.836 58.3418C134.829 58.3457 134.823 58.3513 134.818 58.3582L132.67 61.4152C132.64 61.457 132.6 61.4912 132.554 61.5153C132.508 61.5394 132.458 61.5527 132.406 61.5542C132.354 61.5528 132.304 61.5395 132.258 61.5154C132.213 61.4913 132.173 61.457 132.143 61.4152C132.072 61.3118 132.034 61.1892 132.034 61.0636C132.034 60.9381 132.072 60.8155 132.143 60.7121L134.3 57.6551C134.309 57.6389 134.314 57.6204 134.314 57.6016C134.314 57.5828 134.309 57.5643 134.3 57.5481L131.215 53.3628C131.177 53.3128 131.117 53.3475 131.117 53.4156V61.7918C131.117 62.4643 131.534 63.0146 132.033 63.0146L142.116 63.4314C142.621 63.4314 143.032 62.8756 143.032 62.2086V55.4096C142.686 55.8918 142.199 56.1933 141.657 56.1933Z" fill="white"/>
<path d="M139.752 53.6532C139.751 53.2342 139.831 52.8189 139.987 52.4304L132.031 52.0135C131.923 52.0162 131.816 52.0414 131.719 52.0876C131.621 52.1338 131.534 52.1999 131.463 52.2817L135.958 58.3818C136.081 58.5682 136.247 58.7223 136.441 58.8311C136.636 58.9399 136.854 59.0003 137.078 59.0071C137.495 59.0071 137.901 59.203 138.198 58.7987L140.503 55.6694C140.046 55.2039 139.752 54.4744 139.752 53.6532Z" fill="white"/>
<path d="M150.97 75.6233C150.97 75.6233 149.344 75.5261 149.536 76.6627C149.526 76.72 149.534 76.7791 149.559 76.8317C149.583 76.8843 149.624 76.9277 149.675 76.9559C149.675 76.9559 149.675 76.8711 149.842 76.9003C149.9 76.9097 149.96 76.9125 150.019 76.9086C150.098 76.9025 150.174 76.8714 150.234 76.8197C150.234 76.8197 150.69 76.6307 150.868 75.8846C150.868 75.8846 151 75.722 150.995 75.6803L150.717 75.797C150.769 75.911 150.776 76.0407 150.736 76.1597C150.736 76.1597 150.728 75.804 150.675 75.8123C150.664 75.8123 150.536 75.8818 150.536 75.8818C150.536 75.8818 150.697 76.225 150.576 76.4751C150.576 76.4751 150.622 76.0582 150.486 75.9068L150.293 76.0193C150.293 76.0193 150.482 76.3737 150.354 76.6641C150.354 76.6641 150.387 76.2194 150.252 76.0457L150.077 76.1847C150.077 76.1847 150.255 76.5362 150.147 76.7766C150.147 76.7766 150.133 76.2583 150.04 76.2208C149.973 76.2769 149.914 76.3408 149.863 76.4112C149.863 76.4112 149.984 76.6655 149.909 76.7989C149.909 76.7989 149.863 76.4543 149.825 76.4529C149.746 76.5695 149.689 76.7001 149.657 76.8378C149.665 76.6929 149.711 76.5526 149.789 76.4306C149.701 76.4472 149.62 76.4893 149.556 76.5515C149.556 76.5515 149.579 76.3903 149.834 76.3751C149.88 76.3082 149.933 76.2467 149.992 76.1916C149.859 76.1802 149.725 76.1958 149.597 76.2375C149.597 76.2375 149.736 76.0847 150.038 76.1541L150.211 76.0152C150.058 75.9902 149.902 75.9902 149.749 76.0152C149.749 76.0152 149.907 75.8762 150.256 75.979L150.446 75.8665C150.301 75.8346 150.153 75.8216 150.005 75.8276C150.165 75.7677 150.342 75.7707 150.5 75.8359L150.639 75.7762C150.639 75.7762 150.436 75.7359 150.377 75.7303C150.319 75.7248 150.315 75.7067 150.315 75.7067C150.443 75.6858 150.574 75.7007 150.694 75.7498C150.79 75.7157 150.882 75.6734 150.97 75.6233Z" fill="#0452C7"/>
<path opacity="0.1" d="M149.85 77.2491C150.485 77.2491 151 77.162 151 77.0546C151 76.9471 150.485 76.86 149.85 76.86C149.215 76.86 148.7 76.9471 148.7 77.0546C148.7 77.162 149.215 77.2491 149.85 77.2491Z" fill="#0452C7"/>
<path d="M125.938 75.6706C125.938 75.6706 123.978 75.5524 124.208 76.9212C124.196 76.9908 124.207 77.0625 124.238 77.1259C124.269 77.1893 124.32 77.2412 124.382 77.2741C124.382 77.2741 124.382 77.1727 124.584 77.2074C124.654 77.2194 124.725 77.2226 124.796 77.2172C124.893 77.211 124.985 77.1734 125.058 77.1102C125.058 77.1102 125.614 76.8823 125.822 75.9818C125.822 75.9818 125.982 75.7859 125.975 75.7345L125.644 75.8734C125.708 76.0106 125.716 76.1666 125.668 76.3098C125.668 76.3098 125.658 75.8818 125.594 75.8929C125.582 75.8929 125.422 75.9749 125.422 75.9749C125.422 75.9749 125.617 76.3918 125.471 76.6933C125.471 76.6933 125.526 76.1805 125.361 75.9985L125.129 76.1375C125.129 76.1375 125.355 76.5668 125.202 76.9184C125.202 76.9184 125.241 76.3806 125.08 76.1708L124.869 76.3362C124.869 76.3362 125.083 76.7531 124.952 77.049C124.952 77.049 124.935 76.4237 124.823 76.3765C124.743 76.4439 124.671 76.5209 124.61 76.6058C124.61 76.6058 124.749 76.9129 124.666 77.0754C124.666 77.0754 124.61 76.6586 124.564 76.6586C124.469 76.8 124.4 76.9578 124.361 77.1241C124.37 76.9491 124.425 76.7796 124.52 76.6322C124.416 76.6511 124.319 76.6993 124.242 76.7711C124.242 76.7711 124.271 76.5752 124.57 76.5585C124.625 76.4773 124.689 76.4027 124.762 76.3362C124.601 76.3224 124.438 76.3413 124.285 76.3918C124.285 76.3918 124.443 76.2069 124.816 76.2903L125.024 76.1208C124.84 76.091 124.652 76.091 124.468 76.1208C124.468 76.1208 124.659 75.9582 125.081 76.0763L125.308 75.9374C125.133 75.8988 124.954 75.8834 124.776 75.8915C124.776 75.8915 124.985 75.7776 125.375 75.8998L125.536 75.8276C125.536 75.8276 125.293 75.7803 125.22 75.772C125.148 75.7637 125.145 75.7442 125.145 75.7442C125.3 75.7188 125.459 75.7366 125.604 75.7956C125.719 75.7641 125.831 75.7222 125.938 75.6706Z" fill="#0452C7"/>
<path opacity="0.1" d="M124.588 77.634C125.355 77.634 125.976 77.5289 125.976 77.3992C125.976 77.2695 125.355 77.1643 124.588 77.1643C123.822 77.1643 123.201 77.2695 123.201 77.3992C123.201 77.5289 123.822 77.634 124.588 77.634Z" fill="#0452C7"/>
<path d="M113.639 61.9724C113.639 61.9724 113.799 61.8182 113.746 61.714C113.731 61.6816 113.723 61.6462 113.723 61.6104C113.723 61.5746 113.731 61.5392 113.746 61.5069C113.746 61.5069 113.388 60.0979 113.254 59.9562C113.167 59.8529 113.099 59.7341 113.055 59.606C113.069 59.5785 113.076 59.5479 113.075 59.5171C113.069 59.375 113.021 59.2381 112.936 59.1238C112.832 58.9697 112.774 58.7888 112.77 58.6028C112.769 58.5796 112.769 58.5564 112.77 58.5333C112.731 58.4287 112.666 58.3353 112.582 58.261C112.498 58.1868 112.398 58.1338 112.289 58.1067C112.335 57.8079 112.398 57.5092 112.417 57.209C112.48 56.2683 112.129 55.3554 111.785 54.4744C111.709 54.256 111.608 54.0475 111.483 53.8533C111.329 53.6503 111.133 53.4822 110.91 53.3601C110.686 53.2379 110.439 53.1645 110.184 53.1446C109.997 53.1212 109.807 53.1397 109.628 53.1988C109.452 53.2782 109.289 53.3867 109.149 53.5198C109 53.6449 108.851 53.7727 108.713 53.9089L108.697 53.9255L108.648 53.977L108.629 53.9964L108.583 54.0478L108.566 54.0659C108.547 54.0895 108.526 54.1131 108.506 54.1381C108.488 54.1618 108.47 54.184 108.453 54.2076L108.437 54.2312L108.401 54.2827L108.384 54.3091C108.371 54.3271 108.362 54.3452 108.351 54.3633L108.335 54.3883C108.321 54.4147 108.306 54.4411 108.292 54.4689L108.242 54.58V54.5953L108.213 54.669C108.175 54.7579 108.139 54.8468 108.093 54.9316L108.085 54.9455L107.985 55.0664C107.939 55.1264 107.901 55.1917 107.871 55.2609L107.861 55.2831C107.861 55.2929 107.854 55.304 107.85 55.3137L107.84 55.3387C107.838 55.3496 107.835 55.3602 107.831 55.3707C107.831 55.379 107.831 55.3874 107.831 55.3971L107.822 55.4276C107.822 55.4374 107.822 55.4457 107.822 55.4554C107.822 55.4652 107.822 55.4763 107.815 55.486V55.5152V55.5458C107.815 55.5569 107.815 55.568 107.815 55.5805C107.815 55.593 107.815 55.5972 107.815 55.6041C107.815 55.6111 107.815 55.643 107.815 55.6625C107.815 55.6819 107.815 55.6778 107.815 55.6861C107.815 55.6986 107.815 55.7111 107.815 55.7236C107.815 55.7319 107.815 55.7403 107.815 55.7486C107.815 55.7602 107.815 55.7718 107.815 55.7834V55.8084C107.815 55.8209 107.815 55.832 107.815 55.8431C107.815 55.8514 107.815 55.8598 107.815 55.8681L107.824 55.9043C107.824 55.9043 107.824 55.9195 107.824 55.9265L107.836 55.9654C107.836 55.9654 107.836 55.9779 107.843 55.9835C107.85 55.989 107.857 56.0224 107.865 56.0404C107.908 56.1335 107.96 56.222 108.021 56.3044C108.061 56.36 108.103 56.4142 108.145 56.4698L108.205 56.5532C108.245 56.6085 108.282 56.6666 108.314 56.7269C108.412 56.913 108.459 57.1214 108.452 57.3315C108.444 57.5415 108.382 57.746 108.271 57.9247L108.221 58.0011C108.194 58.0435 108.175 58.0906 108.164 58.14C108.159 58.183 108.164 58.2266 108.178 58.2676C108.191 58.3086 108.214 58.3462 108.244 58.3777L108.12 58.4096C108.018 58.4374 107.949 58.4596 107.949 58.4596C107.865 58.4522 107.78 58.4522 107.696 58.4596C107.579 58.4965 107.474 58.5636 107.391 58.6542C107.391 58.6542 106.86 58.7181 106.686 58.5638C106.513 58.4096 105.904 58.3568 105.904 58.3568C105.904 58.3568 105.731 58.0205 105.545 57.9163C105.359 57.8121 104.908 57.619 104.894 57.5161C104.856 57.4073 104.797 57.3065 104.722 57.2188C104.63 57.1992 104.537 57.188 104.444 57.1854L104.415 57.1354L104.043 56.4948C104.043 56.4948 103.578 55.9515 103.326 55.9001C103.074 55.8487 103.681 56.4768 103.71 56.5059C103.624 56.4445 103.517 56.4197 103.413 56.4369C103.308 56.4541 103.215 56.5119 103.154 56.5976C102.956 56.8172 103.48 57.3327 103.806 57.6176L103.858 57.6634C103.861 57.6919 103.865 57.7202 103.871 57.7482C104.017 58.511 104.826 59.1711 104.826 59.1711C104.826 59.1711 104.919 59.5977 105.225 59.7019C105.468 59.7839 106.775 60.3758 107.457 60.4939C107.4 60.6412 107.333 60.9831 107.615 61.4861C107.615 61.4861 107.682 62.3782 107.536 62.4949C107.39 62.6116 107.397 63.9039 107.397 63.9039C107.397 63.9039 106.841 66.1535 107.397 66.6316C107.432 66.6618 107.472 66.6862 107.515 66.7038C107.515 66.7386 107.525 66.7747 107.529 66.8122C107.554 67.0373 107.562 67.2707 107.503 67.368C107.363 67.5876 107.548 68.1823 107.548 68.1823C107.548 68.1823 107.012 71.2212 107.251 72.294C107.402 73.0955 107.473 73.9101 107.462 74.7257C107.462 74.7257 107.383 75.6692 107.794 76.2389C107.84 76.3736 107.866 76.5138 107.874 76.6557C107.901 76.9283 107.973 77.1945 108.086 77.4436C108.18 77.6243 108.365 78.3885 108.206 78.5942C108.048 78.7998 108.378 81.0523 108.378 81.0523C108.378 81.0523 108.113 81.747 108.378 82.1125L108.387 82.1222C108.229 82.1204 108.073 82.0979 107.921 82.0555C107.623 81.9555 107.846 82.3334 108.199 82.5919C108.045 82.9421 107.833 83.4117 107.762 83.5646C107.455 83.6174 106.846 83.7035 106.489 83.6188C105.998 83.5034 106.702 84.2913 107.365 84.4344C107.833 84.5218 108.31 84.5563 108.786 84.5372L109.214 84.0648C109.56 84.1112 109.91 84.1243 110.258 84.1037L110.221 84.5428H110.472V84.087C110.631 84.0717 110.795 84.0509 110.964 84.0203C110.964 84.0203 110.974 83.5396 110.944 83.0852L111.098 83.0991L111.122 82.8476L111.668 82.9462L112.159 78.9165C112.159 78.9165 112.213 77.4172 112.332 76.5765C112.452 75.7359 112.079 72.9165 112.079 72.9165C112.079 72.9165 112.053 72.7775 112.027 72.5163C112 72.2551 112.027 70.7307 112.027 70.7307C112.027 70.7307 112.225 69.897 112.186 69.8261C112.148 69.7553 112.199 69.3995 112.199 69.3995C113.033 67.7001 112.007 66.1647 111.65 65.7089C111.67 65.6897 111.683 65.6633 111.685 65.6353C111.687 65.6256 111.687 65.6157 111.685 65.6061C111.628 65.4623 111.561 65.323 111.484 65.1892L111.693 64.9238C111.765 65.028 111.817 65.1058 111.817 65.1058C111.817 65.1058 112.042 64.6014 112.269 64.4111C112.495 64.2207 113.582 62.4073 113.582 62.4073C113.582 62.4073 113.835 62.2378 113.702 62.0961C113.568 61.9543 113.639 61.9724 113.639 61.9724ZM110.294 76.2736C110.276 76.215 110.244 76.1619 110.2 76.1194C110.2 76.1194 110.161 75.8415 110.147 75.4844C110.226 75.7623 110.307 75.9637 110.307 75.9637L110.294 76.2736ZM110.92 82.8837C110.92 82.8587 110.92 82.8337 110.92 82.81H110.939L110.92 82.8837ZM111.084 64.4889V64.4722C111.081 64.4366 111.087 64.4008 111.103 64.3684C111.118 64.336 111.141 64.308 111.17 64.2874C111.185 64.278 111.198 64.2646 111.206 64.2487C111.214 64.2327 111.217 64.2149 111.216 64.1971C111.21 64.1386 111.187 64.0829 111.152 64.0359C111.179 64.0553 111.261 64.0998 111.316 63.9386C111.324 63.9135 111.329 63.8872 111.329 63.8608C111.315 63.7261 111.26 63.5988 111.172 63.4967L111.772 62.2323C111.838 62.2518 111.905 62.2671 111.972 62.2781C111.815 62.7645 111.686 63.3439 111.686 63.3439L111.222 64.3652C111.253 64.3774 111.281 64.3975 111.302 64.4236L111.084 64.4889Z" fill="url(#paint0_linear_161_1558)"/>
<path d="M109.086 82.0903C109.086 82.0903 108.306 82.1862 107.926 82.0555C107.547 81.9249 108.043 82.6114 108.556 82.7795C108.918 82.8857 109.292 82.9491 109.668 82.9685L110.27 82.4015L110.91 82.4516L110.799 83.0783L110.998 83.0963L111.074 82.2765L109.086 82.0903Z" fill="#444053"/>
<path opacity="0.1" d="M109.086 82.0903C109.086 82.0903 108.306 82.1862 107.926 82.0555C107.547 81.9249 108.043 82.6114 108.556 82.7795C108.918 82.8857 109.292 82.9491 109.668 82.9685L110.27 82.4015L110.91 82.4516L110.799 83.0783L110.998 83.0963L111.074 82.2765L109.086 82.0903Z" fill="black"/>
<path d="M107.96 83.5229C107.96 83.5229 107.023 83.7272 106.549 83.6118C106.075 83.4965 106.754 84.2788 107.395 84.4191C107.847 84.5066 108.308 84.5411 108.768 84.522L109.435 83.7661L110.216 83.7536L110.152 84.5275H110.397V83.5229H107.96Z" fill="#444053"/>
<path opacity="0.1" d="M107.96 83.5229C107.96 83.5229 107.023 83.7272 106.549 83.6118C106.075 83.4965 106.754 84.2788 107.395 84.4191C107.847 84.5066 108.308 84.5411 108.768 84.522L109.435 83.7661L110.216 83.7536L110.152 84.5275H110.397V83.5229H107.96Z" fill="black"/>
<path d="M111.422 65.7187C111.422 65.7187 113.025 67.5001 112.064 69.5121C112.064 69.5121 112.013 69.872 112.05 69.9359C112.088 69.9998 111.897 70.8336 111.897 70.8336C111.897 70.8336 111.871 72.3454 111.897 72.6025C111.924 72.8595 111.949 72.9985 111.949 72.9985C111.949 72.9985 112.307 75.7928 112.192 76.6266C112.077 77.4603 112.025 78.9471 112.025 78.9471L111.551 82.9462L109.089 82.4849L110.201 76.9976L110.24 76.0249C110.24 76.0249 109.778 74.8341 109.983 74.231C110.187 73.6279 109.931 65.9507 109.931 65.9507L111.422 65.7187Z" fill="#444053"/>
<path opacity="0.02" d="M111.422 65.7187C111.422 65.7187 113.025 67.5001 112.064 69.5121C112.064 69.5121 112.013 69.872 112.05 69.9359C112.088 69.9998 111.897 70.8336 111.897 70.8336C111.897 70.8336 111.871 72.3454 111.897 72.6025C111.924 72.8595 111.949 72.9985 111.949 72.9985C111.949 72.9985 112.307 75.7928 112.192 76.6266C112.077 77.4603 112.025 78.9471 112.025 78.9471L111.551 82.9462L109.089 82.4849L110.201 76.9976L110.24 76.0249C110.24 76.0249 109.778 74.8341 109.983 74.231C110.187 73.6279 109.931 65.9507 109.931 65.9507L111.422 65.7187Z" fill="black"/>
<path d="M110.243 74.3324C109.965 74.8702 110.14 76.1778 110.14 76.1778C110.511 76.4987 110.307 79.2931 110.307 79.2931C110.307 79.2931 110.562 82.0486 110.724 82.3696C110.885 82.6906 110.863 84.0092 110.863 84.0092C108.978 84.3552 107.746 83.6118 107.746 83.6118C107.746 83.6118 108.349 82.2403 108.362 82.1764C108.369 82.1403 108.449 82.2376 108.473 82.2667L108.362 82.1125C108.104 81.754 108.362 81.062 108.362 81.062C108.362 81.062 108.04 78.8387 108.195 78.6261C108.349 78.4135 108.17 77.6646 108.079 77.4853C107.969 77.2374 107.899 76.9732 107.874 76.703C107.866 76.5636 107.84 76.4258 107.797 76.2931C107.399 75.7289 107.476 74.7938 107.476 74.7938C107.487 73.9859 107.418 73.1789 107.272 72.3843C107.041 71.3199 107.559 68.3074 107.559 68.3074C107.559 68.3074 107.387 67.7182 107.515 67.5C107.573 67.4028 107.565 67.1721 107.54 66.9442C107.509 66.6663 107.451 66.4079 107.451 66.4079L110.953 65.7909C111.027 65.9132 111.092 66.0313 111.156 66.1452C112.314 68.2837 111.533 69.0772 111.533 69.0772L110.789 71.3588C110.789 71.3588 110.525 73.7933 110.243 74.3324Z" fill="#444053"/>
<path d="M104.697 57.6051L104.196 58.0219C104.196 58.0219 104.098 57.9441 103.967 57.826C103.653 57.5481 103.147 57.0326 103.337 56.8158C103.366 56.7739 103.403 56.7383 103.445 56.7109C103.488 56.6836 103.536 56.6652 103.586 56.6568C103.636 56.6483 103.688 56.6501 103.737 56.6619C103.786 56.6737 103.833 56.6953 103.874 56.7255C103.846 56.6949 103.265 56.0738 103.504 56.1238C103.743 56.1738 104.199 56.713 104.199 56.713L104.558 57.348L104.697 57.6051Z" fill="#EFB7B9"/>
<path d="M111.397 64.5278L110.807 64.7071L111.255 65.488L111.768 64.8224L111.397 64.5278Z" fill="#EFB7B9"/>
<path d="M110.012 57.1827C110.94 57.1827 111.692 56.4311 111.692 55.5041C111.692 54.577 110.94 53.8255 110.012 53.8255C109.084 53.8255 108.333 54.577 108.333 55.5041C108.333 56.4311 109.084 57.1827 110.012 57.1827Z" fill="#EFB7B9"/>
<path d="M109.024 56.1169C109.024 56.1169 110.553 58.5389 109.101 58.7445C107.65 58.9502 111.048 60.4231 111.048 60.4231L112.317 59.1419C112.317 59.1419 110.996 56.8603 111.205 55.989C111.414 55.1178 109.024 56.1169 109.024 56.1169Z" fill="#EFB7B9"/>
<path opacity="0.1" d="M111.16 66.1452C110.821 66.2485 110.476 66.3288 110.127 66.3856C110.127 66.3856 108.236 67.2193 107.548 66.9414C107.517 66.6635 107.459 66.4051 107.459 66.4051L110.953 65.7909C111.031 65.9132 111.099 66.0313 111.16 66.1452Z" fill="black"/>
<path d="M112.9 59.8089L112.558 60.5162L112.173 61.311L112.117 61.4249L111.659 62.4129L111.078 63.6635C111.078 63.6635 111.284 63.9067 111.217 64.0998C111.151 64.2929 111.063 64.2012 111.052 64.1901C111.062 64.2054 111.191 64.3721 111.076 64.4458C111.042 64.4753 111.016 64.5136 111.003 64.5566C110.989 64.5995 110.988 64.6453 110.999 64.689C110.999 64.689 111.473 65.4713 111.564 65.7533C111.654 66.0354 110.127 66.2786 110.127 66.2786C110.127 66.2786 107.96 67.2402 107.42 66.7649C106.881 66.2897 107.42 64.0609 107.42 64.0609C107.42 64.0609 107.42 62.7797 107.559 62.6644C107.698 62.5491 107.636 61.6639 107.636 61.6639C107.265 60.9844 107.521 60.5995 107.521 60.5995L107.418 58.857C107.418 58.857 107.584 58.6778 107.712 58.6653C107.794 58.6571 107.876 58.6571 107.957 58.6653C107.957 58.6653 108.024 58.6417 108.123 58.6153C108.328 58.5569 108.669 58.4763 108.79 58.5361C108.969 58.6264 110.125 58.3971 110.125 58.3971C110.622 58.3243 111.123 58.2779 111.625 58.2581C111.796 58.248 111.968 58.2668 112.134 58.3137C112.245 58.3388 112.348 58.3916 112.434 58.4671C112.52 58.5426 112.585 58.6385 112.624 58.7459C112.605 58.9543 112.66 59.1628 112.779 59.335C112.987 59.6685 112.9 59.8089 112.9 59.8089Z" fill="#0452C7"/>
<path opacity="0.1" d="M104.697 57.6051L104.196 58.0219C104.196 58.0219 104.098 57.9441 103.967 57.826C103.927 57.3939 104.295 57.3369 104.555 57.348L104.697 57.6051Z" fill="black"/>
<path d="M107.639 58.8487L107.42 58.8612C107.42 58.8612 106.907 58.9251 106.741 58.7709C106.574 58.6166 105.984 58.5666 105.984 58.5666C105.984 58.5666 105.817 58.2331 105.638 58.1303C105.459 58.0275 105.022 57.8357 105.01 57.7329C104.973 57.6253 104.916 57.5254 104.843 57.4383C104.843 57.4383 103.881 57.2076 104.023 57.9636C104.164 58.7195 104.946 59.374 104.946 59.374C104.946 59.374 105.036 59.7908 105.331 59.8992C105.626 60.0076 107.536 60.8997 107.845 60.669C108.153 60.4383 107.639 58.8487 107.639 58.8487Z" fill="#0452C7"/>
<path opacity="0.1" d="M112.782 59.3309C112.663 59.1586 112.608 58.9501 112.627 58.7417C112.588 58.6343 112.523 58.5385 112.437 58.463C112.351 58.3874 112.248 58.3347 112.137 58.3096C112.055 58.2854 111.972 58.2691 111.888 58.261C111.998 58.2868 112.099 58.3396 112.184 58.4146C112.268 58.4895 112.333 58.5843 112.371 58.6903C112.351 58.8988 112.406 59.1076 112.526 59.2795C112.73 59.613 112.641 59.7547 112.641 59.7547L112.299 60.4606L111.913 61.2582L111.858 61.3721L111.401 62.3601L110.82 63.6107C110.82 63.6107 111.024 63.8539 110.959 64.047C110.894 64.2402 110.806 64.1484 110.793 64.1373C110.805 64.1526 110.932 64.3194 110.818 64.393C110.784 64.4225 110.759 64.4608 110.745 64.5037C110.732 64.5466 110.73 64.5924 110.741 64.6362C110.741 64.6362 111.216 65.4185 111.305 65.7006C111.394 65.9826 109.869 66.2258 109.869 66.2258C109.869 66.2258 108.363 66.8928 107.55 66.8414C108.245 67.1123 110.126 66.2772 110.126 66.2772C110.126 66.2772 111.655 66.0341 111.562 65.752C111.469 65.4699 110.998 64.6876 110.998 64.6876C110.987 64.644 110.988 64.5981 111.002 64.5552C111.015 64.5123 111.04 64.4739 111.074 64.4444C111.186 64.3708 111.06 64.204 111.051 64.1888C111.062 64.1999 111.156 64.2777 111.216 64.0984C111.276 63.9192 111.077 63.6621 111.077 63.6621L111.658 62.4115L112.116 61.4236L112.171 61.3096L112.556 60.5148L112.898 59.8075C112.898 59.8075 112.987 59.6644 112.782 59.3309Z" fill="black"/>
<path d="M112.666 59.6171L112.897 59.8089C112.939 59.9358 113.004 60.0537 113.09 60.1563C113.218 60.2952 113.564 61.6931 113.564 61.6931C113.55 61.7254 113.542 61.7605 113.542 61.7959C113.542 61.8314 113.55 61.8665 113.564 61.8987C113.616 62.0016 113.461 62.1558 113.461 62.1558C113.461 62.1558 113.385 62.1294 113.513 62.2711C113.641 62.4129 113.397 62.5782 113.397 62.5782C113.397 62.5782 112.346 64.3721 112.128 64.5653C111.91 64.7584 111.691 65.26 111.691 65.26C111.691 65.26 111.235 64.543 111.127 64.5291L111.576 63.5162C111.576 63.5162 111.883 62.1072 112.114 61.8487C112.345 61.5903 111.999 60.7079 111.999 60.7079L112.666 59.6171Z" fill="#0452C7"/>
<path opacity="0.1" d="M112.814 62.2309C112.622 62.4615 112.282 62.5088 111.979 62.4768C111.935 62.4768 111.892 62.4657 111.847 62.4574C111.782 62.4449 111.717 62.4296 111.653 62.4115C111.424 62.3455 111.208 62.2397 111.016 62.0989C110.976 62.0624 110.928 62.0345 110.877 62.0169C110.816 62.0097 110.754 62.0214 110.7 62.0505C110.645 62.0796 110.602 62.1246 110.574 62.1795C110.508 62.2837 110.478 62.406 110.411 62.5102C110.338 62.6082 110.243 62.6873 110.134 62.741C110.024 62.7947 109.903 62.8213 109.781 62.8187C109.537 62.8119 109.296 62.7649 109.067 62.6797C109.271 62.4615 109.428 62.2025 109.525 61.9196C109.567 61.7319 109.58 61.5387 109.562 61.3471C109.506 60.4397 109.19 59.4837 108.449 58.9557C108.321 58.864 108.171 58.7556 108.124 58.618C108.33 58.5597 108.67 58.4791 108.791 58.5388C108.971 58.6292 110.126 58.3999 110.126 58.3999C110.623 58.3271 111.124 58.2807 111.626 58.2609C111.798 58.2507 111.97 58.2695 112.135 58.3165C112.052 58.6934 112.038 59.0823 112.093 59.4643C112.146 59.7 112.231 59.9273 112.346 60.1396C112.413 60.2661 112.485 60.3925 112.554 60.5189C112.75 60.8691 112.936 61.2207 112.971 61.6153C113 61.8331 112.944 62.0539 112.814 62.2309Z" fill="black"/>
<path opacity="0.1" d="M110.277 64.0373C110.375 64.0114 110.477 64.0024 110.578 64.0109C110.662 64.036 110.739 64.0808 110.803 64.1415H110.144C109.974 64.1415 109.719 64.1512 109.588 64.0317C109.702 63.9164 110.111 64.0567 110.277 64.0373Z" fill="black"/>
<path d="M107.993 55.3068C107.893 55.4443 107.83 55.6052 107.81 55.7741C107.79 55.9429 107.814 56.1141 107.879 56.2711C107.985 56.5198 108.188 56.713 108.313 56.952C108.407 57.1374 108.453 57.3436 108.445 57.5514C108.438 57.7592 108.378 57.9617 108.271 58.1401C108.222 58.203 108.187 58.2754 108.168 58.3527C108.138 58.5486 108.341 58.6889 108.502 58.8029C109.242 59.3309 109.557 60.2869 109.614 61.1943C109.633 61.3858 109.622 61.579 109.58 61.7668C109.482 62.0498 109.326 62.3089 109.121 62.5269C109.35 62.6115 109.591 62.6585 109.835 62.6658C109.957 62.6679 110.078 62.6408 110.188 62.5869C110.297 62.533 110.392 62.4539 110.465 62.356C110.532 62.2531 110.563 62.1309 110.628 62.0252C110.655 61.9703 110.699 61.9251 110.754 61.896C110.808 61.8669 110.87 61.8553 110.931 61.8627C110.982 61.8807 111.029 61.9085 111.07 61.9447C111.353 62.1524 111.685 62.2827 112.033 62.3226C112.332 62.3573 112.672 62.3073 112.868 62.0767C112.998 61.8982 113.055 61.676 113.025 61.4569C112.958 60.6802 112.3 60.0674 112.149 59.3059C112.025 58.6875 112.248 58.0553 112.288 57.4272C112.349 56.4962 112.01 55.5888 111.678 54.7176C111.604 54.5016 111.506 54.2946 111.386 54.1006C111.239 53.9023 111.051 53.7376 110.835 53.6178C110.619 53.498 110.38 53.4257 110.134 53.4059C109.952 53.3818 109.767 53.4004 109.593 53.4601C109.422 53.5385 109.265 53.6456 109.129 53.7769C108.812 54.0548 108.485 54.3327 108.295 54.719C108.22 54.8746 108.171 55.0414 108.088 55.1914" fill="#925978"/>
<g opacity="0.1">
<path opacity="0.1" d="M108.296 54.9677C108.378 54.8162 108.435 54.6495 108.502 54.4952C108.574 54.3508 108.664 54.2159 108.769 54.0937C108.577 54.2714 108.418 54.4811 108.298 54.7134C108.226 54.8649 108.177 55.026 108.098 55.1733L108.199 55.0872C108.173 55.1227 108.15 55.1599 108.128 55.1984C108.193 55.1284 108.25 55.051 108.296 54.9677Z" fill="black"/>
<path opacity="0.1" d="M112.241 62.1058C111.892 62.0651 111.56 61.9343 111.278 61.7265C111.236 61.6913 111.189 61.6636 111.139 61.6445C111.077 61.638 111.016 61.6502 110.962 61.6795C110.907 61.7088 110.863 61.7537 110.835 61.8085C110.822 61.8304 110.81 61.8532 110.799 61.8766C110.843 61.8569 110.892 61.8525 110.938 61.8641C110.99 61.8821 111.037 61.9099 111.077 61.946C111.36 62.1538 111.692 62.2841 112.041 62.324C112.34 62.3587 112.679 62.3087 112.875 62.0781C112.9 62.0484 112.921 62.0163 112.939 61.9822C112.727 62.1013 112.481 62.1449 112.241 62.1058Z" fill="black"/>
<path opacity="0.1" d="M110.037 62.4476C109.793 62.4402 109.553 62.3932 109.324 62.3087C109.528 62.0897 109.684 61.8303 109.781 61.5472C109.824 61.36 109.836 61.1672 109.817 60.9761C109.762 60.0687 109.448 59.1113 108.705 58.5847C108.544 58.4694 108.342 58.329 108.371 58.1331C108.392 58.0562 108.428 57.984 108.476 57.9205C108.583 57.7424 108.643 57.5401 108.65 57.3325C108.657 57.125 108.612 56.919 108.517 56.7338C108.392 56.4948 108.189 56.3003 108.082 56.0529C108.026 55.916 108.001 55.7684 108.009 55.6207C108.016 55.4729 108.057 55.3287 108.127 55.1984C108.091 55.2357 108.054 55.2709 108.014 55.304C107.985 55.3438 107.954 55.3818 107.921 55.4179C107.851 55.548 107.81 55.692 107.803 55.8396C107.796 55.9872 107.821 56.1346 107.878 56.2711C107.984 56.5198 108.187 56.713 108.312 56.952C108.406 57.1374 108.451 57.3436 108.444 57.5514C108.437 57.7591 108.377 57.9617 108.27 58.14C108.221 58.2029 108.186 58.2754 108.167 58.3526C108.137 58.5486 108.339 58.6889 108.501 58.8029C109.24 59.3309 109.556 60.2869 109.613 61.1943C109.632 61.3857 109.62 61.579 109.578 61.7667C109.481 62.0498 109.325 62.3088 109.119 62.5268C109.349 62.6115 109.59 62.6584 109.834 62.6658C109.956 62.6678 110.077 62.6408 110.186 62.5869C110.296 62.533 110.391 62.4538 110.464 62.3559C110.472 62.342 110.481 62.3281 110.488 62.3142C110.352 62.399 110.197 62.4451 110.037 62.4476Z" fill="black"/>
</g>
<path d="M9.87679 79.0055C9.58846 78.968 9.31207 78.8669 9.06762 78.7095L9.0426 78.6915C9.06266 78.6625 9.07683 78.63 9.08431 78.5956C9.04996 78.5294 9.03185 78.4561 9.03148 78.3816C9.03253 78.3108 9.01831 78.2407 8.98977 78.1759V77.8285C8.90748 77.7123 8.86638 77.572 8.87298 77.4297C8.86325 77.1421 8.85212 75.7303 8.85212 75.7303C8.83602 75.6564 8.83273 75.5803 8.84239 75.5052C8.85212 75.3413 8.85212 75.2801 8.85212 75.2801C8.8178 75.185 8.8073 75.0829 8.82154 74.9828C8.83044 74.888 8.80367 74.7934 8.74646 74.7173L8.90496 73.9392C8.90496 73.9392 8.99255 71.2546 8.73673 70.4445C8.73673 70.4445 8.73673 70.4445 8.73673 70.4348C8.75758 69.9137 8.44059 69.0452 8.61994 68.4394C8.79929 67.8335 8.82154 67.7029 8.82154 67.7029C8.82154 67.7029 8.02905 65.7173 7.82885 65.2462C7.71369 64.9409 7.57421 64.6454 7.41175 64.3625C7.39877 64.3449 7.38626 64.3282 7.37421 64.3124L7.35336 64.2874C7.39693 64.2157 7.42312 64.1348 7.42983 64.0512C7.44095 63.9122 7.42009 63.7372 7.52715 63.6343C7.56794 63.6012 7.61168 63.5719 7.65784 63.5468C7.73934 63.4934 7.8042 63.4182 7.84501 63.3297C7.88581 63.2413 7.90093 63.1432 7.88863 63.0466C7.85757 62.8941 7.78491 62.7532 7.67869 62.6394C7.69038 62.5715 7.69642 62.5027 7.69677 62.4338C7.69645 62.2774 7.66409 62.1227 7.60168 61.9794C7.53927 61.836 7.44813 61.7069 7.33389 61.6V61.5361C7.3355 61.3944 7.29111 61.2559 7.20737 61.1415L7.23657 61.1623L7.18652 61.1193C7.16231 61.0942 7.1347 61.0727 7.10449 61.0553C6.86923 60.8948 6.59429 60.8021 6.30981 60.7874C6.02533 60.7727 5.74229 60.8366 5.49172 60.972C5.36619 61.0381 5.25841 61.1334 5.1775 61.2499C5.01205 61.5055 5.05377 61.8349 4.96757 62.1253C4.88137 62.4157 4.6895 62.6297 4.52683 62.8715C4.36416 63.1132 4.2293 63.3995 4.29048 63.6816C4.33497 63.8872 4.47956 64.0706 4.47678 64.2791C4.46998 64.3896 4.42444 64.4942 4.34817 64.5745C4.27189 64.6548 4.16976 64.7057 4.05969 64.7182H3.99712C4.20388 64.8432 4.43735 64.9175 4.67838 64.9349C4.67838 64.9544 4.66726 64.9725 4.66308 64.9919C4.474 65.7256 4.30021 66.6594 4.30021 66.6594C4.30021 66.6594 4.417 67.6015 4.17369 68.3379C3.93039 69.0744 3.96236 70.5904 3.96236 70.5904C3.96236 70.5904 4.63806 70.2416 4.68116 70.4667C4.72426 70.6918 4.68116 70.753 4.68116 70.753C4.77879 70.8045 4.87903 70.8508 4.98147 70.8919V70.9822L4.95088 71.3852C4.94007 71.4686 4.95308 71.5534 4.98842 71.6298C5.04681 71.7423 4.98842 72.0466 4.98842 72.0466C4.98842 72.0466 4.93837 72.0772 4.98842 72.2217C5.01064 72.3388 4.99708 72.4599 4.94949 72.5691C4.94949 72.5691 4.88971 73.3361 4.87858 73.5001C4.82957 73.7147 4.75876 73.9238 4.66726 74.124C4.66726 74.124 4.848 74.3491 4.66726 74.3811C4.48651 74.413 4.46705 74.6868 4.46705 74.6868C4.46705 74.6868 4.25572 74.8619 4.25572 74.923C3.61712 75.633 3.2026 76.5157 3.06421 77.4603C3.06421 77.4603 2.84176 77.6646 2.87374 77.8591C2.89181 77.9689 2.85567 78.0064 2.82091 78.0189C2.85984 78.0189 2.90294 78.0495 2.88347 78.1454C2.85289 78.3093 2.76808 78.6567 2.76808 78.6567H2.78337C2.60958 78.8568 2.35793 79.1917 2.319 79.4904V79.5266L2.22168 79.7392L3.05587 80.1074L3.12956 79.9949C3.12956 79.9949 3.49938 80.4117 3.92204 80.5062C3.99467 80.5221 4.06875 80.5305 4.1431 80.5312C4.3785 80.5262 4.61111 80.4791 4.82992 80.3923C4.82992 80.3923 5.13579 80.0143 4.34331 79.9421C4.34331 79.9421 3.87894 79.4099 3.92621 79.1847C3.94111 79.0899 3.95085 78.9944 3.95541 78.8985C3.95541 78.8777 3.95541 78.8568 3.95541 78.8374L4.00963 78.8457L4.01937 78.6734C4.03127 78.6592 4.04023 78.6429 4.04573 78.6252C4.05122 78.6075 4.05313 78.589 4.05134 78.5706C4.05134 78.4997 3.98739 78.4886 4.05134 78.4483C4.1153 78.408 4.11391 78.4483 4.11391 78.3468C4.11391 78.2454 4.0722 78.2746 4.16674 78.1718C4.26128 78.0689 4.15701 77.8855 4.15701 77.8855C4.21551 77.8418 4.26418 77.7864 4.29987 77.7227C4.33555 77.659 4.35746 77.5886 4.36417 77.5159C4.35443 77.3019 5.07184 75.9401 5.21921 75.8887C5.36659 75.8373 5.37771 75.5705 5.37771 75.5705C5.37771 75.5705 5.57931 75.6122 5.64187 75.5705C5.74102 75.4596 5.82947 75.3396 5.90603 75.212C5.90603 75.212 6.70825 73.1861 6.71937 72.419L6.7722 72.2453C6.7722 72.2453 7.07807 72.6441 7.03497 72.9304C6.99187 73.2166 7.26994 73.4223 7.26994 73.4223V74.2921C7.30051 74.4436 7.31726 74.5976 7.31999 74.7521C7.31026 74.891 7.44512 75.0383 7.39368 75.162C7.36589 75.2728 7.36589 75.3888 7.39368 75.4997C7.39368 75.4997 7.38255 75.7859 7.39368 75.8679C7.4048 75.9499 7.35197 76.8906 7.62725 77.3005C7.62725 77.3005 7.74265 77.5965 7.62725 77.791C7.51185 77.9856 7.73152 78.1801 7.73152 78.1801C7.73152 78.1801 7.59249 78.4052 7.73152 78.5692C7.81075 78.6724 7.8462 78.8027 7.83024 78.9318C7.77462 79.1403 7.73431 79.4126 7.83024 79.603L7.85526 79.8962L8.66443 79.8337V79.6711C9.01307 79.7566 9.37421 79.7792 9.73081 79.7378C9.86863 79.7254 10.0024 79.6848 10.1239 79.6186C10.2454 79.5524 10.352 79.4619 10.4371 79.3529C10.4371 79.3529 10.7624 78.7901 9.87679 79.0055Z" fill="url(#paint1_linear_161_1558)"/>
<path d="M10.2857 79.3585C10.204 79.4661 10.1007 79.5556 9.98243 79.6211C9.86418 79.6867 9.73355 79.7269 9.59889 79.7392C9.25423 79.7806 8.90487 79.7575 8.56866 79.6711V79.8351L7.7873 79.8962L7.76366 79.6044C7.67329 79.4127 7.715 79.1347 7.77062 78.9263C7.79584 78.8279 7.82789 78.7313 7.86655 78.6373C7.86655 78.6373 8.53946 78.0662 8.7633 78.4983C8.81197 78.5868 8.87934 78.6636 8.96073 78.7234C9.19559 78.8793 9.46272 78.98 9.74209 79.018C10.6013 78.7985 10.2857 79.3585 10.2857 79.3585Z" fill="#0452C7"/>
<path opacity="0.1" d="M8.2085 78.7985C8.2085 78.7985 8.2085 79.3279 8.595 79.3182C8.98151 79.3084 9.03435 79.107 8.912 78.9708C8.82858 78.8743 8.75672 78.7685 8.69789 78.6553L8.2085 78.7985Z" fill="black"/>
<path d="M4.87188 80.3978C4.66164 80.4842 4.43733 80.5313 4.21008 80.5368C4.13811 80.5359 4.0664 80.528 3.99597 80.5132C3.58861 80.4215 3.2313 80.0032 3.2313 80.0032L3.16039 80.1158L2.354 79.7489L2.44577 79.5349V79.4974C2.4833 79.2056 2.72383 78.8707 2.89345 78.672C2.98938 78.5608 3.06446 78.4886 3.06446 78.4886L4.03768 78.6275C4.03768 78.6275 4.03768 78.7526 4.03768 78.9055C4.03427 79.0013 4.02498 79.0969 4.00988 79.1917C3.96956 79.4154 4.41724 79.9448 4.41724 79.9448C5.16802 80.0171 4.87188 80.3978 4.87188 80.3978Z" fill="#0452C7"/>
<path d="M2.93482 78.03C2.91843 78.0345 2.90116 78.0345 2.88477 78.03C2.90131 78.027 2.91827 78.027 2.93482 78.03Z" fill="#444053"/>
<path opacity="0.1" d="M4.02637 78.6359C4.02637 78.6359 4.02637 78.7609 4.02637 78.9138L2.8877 78.7318C2.8877 78.7318 2.88769 78.7095 2.90021 78.6734C2.98919 78.5608 3.06427 78.4886 3.06427 78.4886L4.02637 78.6359Z" fill="black"/>
<path opacity="0.1" d="M8.96318 78.7179C8.79078 79.1166 7.76611 79.0222 7.76611 79.0222C7.77188 78.9901 7.77421 78.9575 7.77307 78.9249C7.79829 78.8264 7.83034 78.7299 7.869 78.6359C7.869 78.6359 8.54191 78.0648 8.76575 78.4969C8.81491 78.5839 8.88225 78.6593 8.96318 78.7179Z" fill="black"/>
<path d="M8.97982 78.6053C8.87832 79.0624 7.76607 78.961 7.76607 78.961C7.78784 78.8252 7.75484 78.6863 7.67431 78.5747C7.53527 78.4107 7.67431 78.187 7.67431 78.187C7.67431 78.187 7.4602 77.9939 7.57281 77.7993C7.68543 77.6048 7.57281 77.3102 7.57281 77.3102C7.30865 76.9031 7.3587 75.9651 7.34758 75.8846C7.33646 75.804 7.34758 75.5177 7.34758 75.5177C7.32059 75.4072 7.32059 75.2919 7.34758 75.1814C7.39763 75.0592 7.26694 74.916 7.27806 74.7743C7.27669 74.6219 7.26227 74.4699 7.23496 74.3199V73.4542C7.1608 73.3969 7.10159 73.3224 7.06238 73.2373C7.02316 73.1521 7.0051 73.0587 7.00973 72.9651C7.05005 72.6789 6.75391 72.2829 6.75391 72.2829L6.70386 72.4552C6.69274 73.2194 5.91833 75.2343 5.91833 75.2343C5.84456 75.3603 5.75939 75.4794 5.6639 75.59C5.60273 75.6317 5.40947 75.59 5.40947 75.59C5.40947 75.59 5.39835 75.8554 5.25654 75.9054C5.11472 75.9554 4.42235 77.3116 4.43069 77.5256C4.4252 77.5994 4.40415 77.6713 4.36893 77.7364C4.33371 77.8016 4.28511 77.8585 4.22631 77.9036C4.22631 77.9036 4.3278 78.087 4.23604 78.1884C4.14428 78.2899 4.18599 78.2593 4.18599 78.3621C4.18599 78.4649 4.18599 78.4233 4.12482 78.4636C4.06364 78.5038 4.12482 78.515 4.12482 78.5858C4.12756 78.6223 4.11666 78.6584 4.09423 78.6873L4.0845 78.8582L2.8916 78.6678C2.8916 78.6678 2.97224 78.3204 3.00283 78.1579C3.0209 78.062 2.97919 78.037 2.94165 78.0314C2.97502 78.0189 3.00978 77.9814 2.99309 77.873C2.96251 77.6785 3.17662 77.4756 3.17662 77.4756C3.30002 76.5381 3.69318 75.6566 4.30834 74.9383C4.30834 74.8771 4.51133 74.7034 4.51133 74.7034C4.51133 74.7034 4.53218 74.4255 4.70597 74.3977C4.87976 74.3699 4.70597 74.1435 4.70597 74.1435C4.79374 73.9435 4.86172 73.7355 4.90896 73.5223C4.92008 73.3598 4.97708 72.5955 4.97708 72.5955C5.02311 72.4863 5.03615 72.366 5.01462 72.2495C4.96735 72.1105 5.01462 72.0758 5.01462 72.0758C5.01462 72.0758 5.07302 71.7701 5.01462 71.6589C4.98094 71.5821 4.96892 71.4976 4.97986 71.4144L5.00767 71.0142L5.05077 70.4167C5.05077 70.4167 8.2207 69.8762 8.56689 70.3139C8.60525 70.3679 8.63308 70.4288 8.64892 70.4931C8.8964 71.2991 8.81159 73.967 8.81159 73.967L8.65865 74.741C8.71454 74.817 8.7403 74.9111 8.73095 75.005C8.71755 75.1047 8.72803 75.2061 8.76154 75.3009C8.76154 75.3009 8.76154 75.3621 8.75042 75.5247C8.74151 75.5998 8.74527 75.6759 8.76154 75.7498C8.76154 75.7498 8.77127 77.1546 8.781 77.4408C8.77474 77.582 8.81423 77.7214 8.89362 77.8383V78.1843C8.92116 78.2488 8.9349 78.3184 8.93394 78.3885C8.93209 78.4634 8.9478 78.5376 8.97982 78.6053Z" fill="#444053"/>
<path opacity="0.1" d="M4.21008 80.534C4.13811 80.5331 4.0664 80.5252 3.99597 80.5104C3.58861 80.4186 3.2313 80.0004 3.2313 80.0004L3.16039 80.1129L2.354 79.7461L2.44577 79.5321V79.4946L3.27996 79.9115C3.27996 79.9115 3.94731 80.2352 4.21008 80.534Z" fill="black"/>
<path opacity="0.1" d="M9.5989 79.7392C9.25423 79.7806 8.90487 79.7575 8.56867 79.6711V79.835L7.78731 79.8962L7.76367 79.6044C8.01115 79.6044 8.41017 79.6141 8.58257 79.6044C8.92588 79.6032 9.26777 79.6485 9.5989 79.7392Z" fill="black"/>
<path opacity="0.1" d="M3.33397 77.7674C3.37443 77.7648 3.41503 77.77 3.45353 77.7827C3.49351 77.8071 3.53162 77.8346 3.56754 77.8647C3.59436 77.8792 3.61993 77.8959 3.64401 77.9147C3.6732 77.9439 3.68572 77.9869 3.71491 78.0161C3.77053 78.0703 3.85394 78.0592 3.9318 78.0842C3.94014 78.0842 3.94849 78.0842 3.94988 78.0995C3.94995 78.1036 3.94879 78.1076 3.94657 78.1111C3.94434 78.1146 3.94114 78.1173 3.93736 78.1189C3.91927 78.1289 3.89894 78.1341 3.87828 78.1341C3.85761 78.1341 3.83728 78.1289 3.81919 78.1189C3.78351 78.0984 3.75077 78.0732 3.72186 78.0439C3.66527 77.9937 3.60034 77.9537 3.53 77.9258C3.43407 77.8869 3.26723 77.8772 3.20605 77.7868C3.24657 77.7704 3.29039 77.7637 3.33397 77.7674Z" fill="black"/>
<path opacity="0.1" d="M3.25212 77.9814C3.27337 77.9874 3.29389 77.9958 3.31329 78.0064L3.41756 78.0592C3.34359 78.0643 3.26972 78.0479 3.20485 78.012C3.18127 78.0033 3.15847 77.9926 3.13672 77.98C3.17495 77.9735 3.21405 77.974 3.25212 77.9814Z" fill="black"/>
<path opacity="0.1" d="M3.39075 78.1607C3.41291 78.1579 3.43533 78.1579 3.45749 78.1607C3.49749 78.1753 3.53431 78.1975 3.56593 78.226C3.64249 78.287 3.73772 78.3199 3.83566 78.3191C3.81733 78.3272 3.79724 78.3306 3.77726 78.3288H3.55759C3.53362 78.3323 3.50927 78.3323 3.48529 78.3288C3.45379 78.3219 3.42338 78.3107 3.39492 78.2955C3.35739 78.2788 3.20306 78.2343 3.20167 78.1829C3.20028 78.1315 3.35321 78.1607 3.39075 78.1607Z" fill="black"/>
<path opacity="0.1" d="M8.37646 78.4205C8.44355 78.426 8.51098 78.426 8.57806 78.4205C8.64937 78.4178 8.7186 78.3957 8.77827 78.3566C8.83666 78.3121 8.82415 78.2649 8.75046 78.2621C8.68071 78.2649 8.6122 78.2814 8.54886 78.3107C8.51611 78.3244 8.4845 78.3407 8.45432 78.3593C8.44042 78.3732 8.39037 78.4219 8.37646 78.4205Z" fill="black"/>
<path opacity="0.1" d="M8.62569 78.5316C8.62569 78.5567 8.59372 78.5706 8.57008 78.5789C8.51267 78.6013 8.4522 78.6149 8.39073 78.6192C8.37543 78.6192 8.33233 78.6192 8.33789 78.5956C8.34346 78.5719 8.40741 78.5789 8.4227 78.5761C8.49133 78.5661 8.55917 78.5512 8.62569 78.5316Z" fill="black"/>
<path opacity="0.1" d="M5.2094 74.4881C5.10729 74.4167 4.98638 74.3771 4.86182 74.3741C4.98797 74.3665 5.11228 74.4073 5.2094 74.4881Z" fill="black"/>
<path opacity="0.1" d="M5.11518 74.0768C5.2069 74.0774 5.29673 74.1029 5.37517 74.1504L5.28897 74.1254C5.232 74.1073 5.17329 74.0952 5.11379 74.0893C5.08042 74.0893 5.04566 74.0893 5.0123 74.0893C4.97893 74.0893 4.93444 74.0795 4.89551 74.0782C4.96363 74.0782 5.0401 74.074 5.11518 74.0768Z" fill="black"/>
<path opacity="0.1" d="M5.42782 74.2727C5.45701 74.2727 5.49177 74.2908 5.49733 74.3199C5.42456 74.2851 5.34869 74.2572 5.27071 74.2366C5.22761 74.2227 5.09553 74.1643 5.06494 74.2046C5.17478 74.2366 5.3013 74.2477 5.42782 74.2727Z" fill="black"/>
<path opacity="0.1" d="M5.70594 73.3681C5.83948 73.323 5.95983 73.2457 6.0563 73.143C6.05515 73.1887 6.04276 73.2334 6.0202 73.2731C5.99765 73.3129 5.96564 73.3465 5.927 73.3709C5.84891 73.4194 5.76196 73.452 5.67118 73.4668C5.58073 73.4826 5.49251 73.5092 5.40841 73.546C5.36809 73.5654 5.24296 73.6849 5.20264 73.6849C5.16232 73.6849 5.23323 73.5974 5.2513 73.5835C5.39156 73.49 5.54472 73.4174 5.70594 73.3681Z" fill="black"/>
<path opacity="0.1" d="M8.2084 74.6896C8.1653 74.6743 7.63837 74.7757 7.67034 74.6743C7.6912 74.6117 7.86221 74.6354 7.90392 74.6367C8.00743 74.6396 8.10998 74.6574 8.2084 74.6896Z" fill="black"/>
<path d="M7.63438 62.5088C7.63437 62.5943 7.62505 62.6796 7.60657 62.7631C7.54188 63.0537 7.36824 63.3085 7.12136 63.4752C6.87449 63.6418 6.57312 63.7076 6.2792 63.659C5.98529 63.6105 5.72115 63.4512 5.5411 63.214C5.36104 62.9768 5.27873 62.6797 5.3111 62.3837C5.34346 62.0877 5.48804 61.8154 5.71511 61.6226C5.94218 61.4299 6.2345 61.3314 6.53197 61.3474C6.82945 61.3634 7.10949 61.4927 7.31452 61.7087C7.51956 61.9247 7.63402 62.211 7.63438 62.5088Z" fill="#FBBEBE"/>
<path d="M7.07383 62.9868C7.07383 62.9868 6.69705 64.0873 6.91116 64.311C7.12527 64.5347 5.37207 64.6681 5.37207 64.6681C5.37207 64.6681 6.10477 63.3536 6.03386 63.0271C5.96296 62.7006 7.07383 62.9868 7.07383 62.9868Z" stroke="#0452C7" stroke-miterlimit="10"/>
<path opacity="0.1" d="M8.64384 70.4903C8.64524 70.5158 8.64524 70.5413 8.64384 70.5668C8.62299 71.0864 7.69564 72.1355 7.48153 71.9563C7.26742 71.777 5.81315 71.4366 5.81315 71.4366C5.81315 71.4366 5.59904 71.1003 5.3752 71.1003C5.24752 71.0897 5.12252 71.0577 5.00537 71.0059L5.04847 70.4084C5.04847 70.4084 8.2184 69.8678 8.56459 70.3055C8.60261 70.3615 8.62951 70.4242 8.64384 70.4903Z" fill="black"/>
<path d="M8.64382 70.475C8.63408 70.7349 8.39634 71.1281 8.13357 71.4338C7.8708 71.7395 7.58856 71.9563 7.48151 71.8701C7.40299 71.819 7.31786 71.7788 7.22847 71.7506C6.74603 71.5742 5.81034 71.3505 5.81034 71.3505C5.81034 71.3505 5.59623 71.0142 5.37239 71.0142C5.14855 71.0142 4.71894 70.7905 4.71894 70.7905C4.71894 70.7905 4.76065 70.7293 4.71894 70.5056C4.67723 70.2819 4.02378 70.6279 4.02378 70.6279C4.02378 70.6279 3.99319 69.1202 4.22677 68.3866C4.46034 67.6529 4.34911 66.7191 4.34911 66.7191C4.34911 66.7191 4.51734 65.7964 4.69947 65.0655C4.80931 64.6278 4.92471 64.2596 5.0123 64.2026C5.24726 64.0498 6.46935 64.2026 6.46935 64.2026C6.70504 64.2057 6.94017 64.2262 7.17286 64.2638C7.23299 64.2877 7.2844 64.3294 7.32023 64.3833L7.35638 64.4347C7.5166 64.716 7.65287 65.0102 7.76374 65.3143C7.95839 65.7825 8.72306 67.7585 8.72306 67.7585C8.72306 67.7585 8.70221 67.8974 8.52842 68.4922C8.35463 69.0869 8.66467 69.9554 8.64382 70.475Z" fill="#65617D"/>
<path d="M7.76796 71.0753L8.13362 71.4338C8.13362 71.4338 8.47007 72.5941 8.03212 72.4913C7.59417 72.3885 7.22852 71.7507 7.22852 71.7507L7.76796 71.0753Z" fill="#FBBEBE"/>
<path opacity="0.1" d="M8.6953 67.846C7.82774 67.8363 7.6039 66.6232 7.6039 66.6232C7.6039 66.6232 7.54272 65.4213 7.43011 65.1976C7.36306 64.9787 7.32886 64.7511 7.32861 64.5222C7.48883 64.8035 7.6251 65.0977 7.73598 65.4018C7.93062 65.8701 8.6953 67.846 8.6953 67.846Z" fill="black"/>
<path d="M8.72557 67.7543C7.85801 67.7446 7.63417 66.5315 7.63417 66.5315C7.63417 66.5315 7.573 65.3296 7.46038 65.1059C7.39333 64.887 7.35913 64.6594 7.35889 64.4305C7.51911 64.7118 7.65538 65.006 7.76625 65.3101C7.9609 65.7784 8.72557 67.7543 8.72557 67.7543Z" fill="#65617D"/>
<path opacity="0.1" d="M7.17253 64.764C7.17253 64.764 6.9181 64.0692 6.501 64.764C6.23779 65.2464 6.09115 65.7837 6.07278 66.3328L6.00049 68.2476C6.06734 68.3711 6.11071 68.5058 6.1284 68.645C6.1284 68.784 6.37866 69.2009 6.37866 69.2009C6.37866 69.2009 6.43983 70.0054 6.6734 70.1388L6.89864 70.8002C6.89864 70.8002 6.90837 71.2379 7.0613 71.4116C7.10589 71.4748 7.13556 71.5473 7.14808 71.6236C7.1606 71.6999 7.15565 71.778 7.1336 71.8521L8.04009 71.5353C8.04009 71.5353 7.93721 71.5728 8.04009 71.2991C8.14298 71.0253 7.97892 70.6682 7.97892 70.6682C7.97892 70.6682 7.39776 69.4051 7.32547 69.2217C7.25317 69.0383 7.15307 68.8243 7.18643 68.6103C7.2198 68.3963 7.19477 66.1244 7.24761 65.7784C7.30044 65.4324 7.17253 64.764 7.17253 64.764Z" fill="black"/>
<path d="M7.26726 64.6681C7.26726 64.6681 7.01283 63.9734 6.59434 64.6681C6.33189 65.1508 6.1853 65.6879 6.16612 66.2369L6.09521 68.1517C6.16166 68.2753 6.205 68.41 6.22312 68.5491C6.22312 68.6881 6.47199 69.1049 6.47199 69.1049C6.47199 69.1049 6.53317 69.9095 6.76813 70.0415L6.99197 70.7043C6.99197 70.7043 7.00309 71.142 7.15603 71.3157C7.20062 71.3789 7.23028 71.4513 7.24281 71.5276C7.25533 71.6039 7.25038 71.6821 7.22833 71.7562L8.13343 71.4394C8.13343 71.4394 8.03193 71.4769 8.13343 71.2017C8.23492 70.9266 8.06947 70.5681 8.06947 70.5681C8.06947 70.5681 7.48971 69.305 7.41741 69.1216C7.34511 68.9382 7.24501 68.7242 7.27838 68.5102C7.31175 68.2962 7.28672 66.0243 7.33816 65.6769C7.3896 65.3296 7.26726 64.6681 7.26726 64.6681Z" fill="#0452C7"/>
<path opacity="0.1" d="M7.28558 70.6585C7.32423 70.6634 7.36181 70.6747 7.3968 70.6918C7.42461 70.7057 7.44824 70.7279 7.47605 70.7432C7.50777 70.7615 7.54373 70.7711 7.58032 70.771C7.53957 70.7731 7.49873 70.7731 7.45798 70.771C7.43255 70.7728 7.40704 70.7694 7.3829 70.7613C7.36001 70.7505 7.33853 70.737 7.31894 70.721C7.294 70.7025 7.26692 70.6872 7.2383 70.6752C7.21606 70.6668 7.19242 70.664 7.18408 70.6418C7.21831 70.6446 7.25226 70.6502 7.28558 70.6585Z" fill="black"/>
<path opacity="0.1" d="M7.63028 70.9322C7.66921 70.9322 7.70675 70.9239 7.74568 70.9211C7.80189 70.919 7.85818 70.9218 7.91391 70.9294C7.83207 70.9713 7.73961 70.9877 7.64836 70.9767C7.6224 70.9697 7.59507 70.9697 7.56911 70.9767C7.54131 70.9878 7.45789 71.0823 7.45094 70.9989C7.44398 70.9156 7.58301 70.9336 7.63028 70.9322Z" fill="black"/>
<path opacity="0.1" d="M7.16146 61.286L7.0127 61.1776C7.0287 61.1829 7.04409 61.1899 7.05858 61.1985C7.08987 61.2154 7.11807 61.2375 7.142 61.2638L7.18927 61.3068L7.16146 61.286Z" fill="black"/>
<path opacity="0.1" d="M7.32298 64.3791C7.29594 64.4401 7.25266 64.4925 7.19785 64.5306C7.16504 64.553 7.1274 64.5672 7.08801 64.5723C7.03276 64.5777 6.97699 64.572 6.92396 64.5556C6.85611 64.5374 6.78928 64.5156 6.72375 64.4903C6.59536 64.4365 6.46399 64.3901 6.33029 64.3513C6.23027 64.3209 6.12423 64.3159 6.02178 64.3368C5.91932 64.3576 5.8237 64.4037 5.74357 64.4708C5.61427 64.6015 5.58369 64.8043 5.45578 64.935C5.28338 65.11 5.00253 65.0989 4.76062 65.0642L4.70361 65.0558C4.81345 64.6181 4.92885 64.2499 5.01644 64.1929C5.2514 64.0401 6.47349 64.1929 6.47349 64.1929C6.70918 64.196 6.94431 64.2165 7.177 64.2541C7.23739 64.2797 7.28837 64.3234 7.32298 64.3791Z" fill="black"/>
<path opacity="0.1" d="M5.31104 62.5088C5.31016 62.28 5.37698 62.0561 5.5031 61.8651C5.62921 61.6742 5.80899 61.5248 6.01983 61.4357C6.23068 61.3466 6.46317 61.3217 6.68809 61.3643C6.913 61.4069 7.1203 61.515 7.28391 61.6751C7.28391 61.8765 7.24359 62.0919 7.30059 62.2795C7.37096 62.457 7.4748 62.6192 7.60646 62.7575C7.54306 63.0351 7.37986 63.2797 7.14787 63.445C6.91588 63.6102 6.63125 63.6846 6.34803 63.6539C6.06481 63.6232 5.80273 63.4896 5.61156 63.2785C5.4204 63.0674 5.31345 62.7935 5.31104 62.5088Z" fill="black"/>
<path d="M7.18917 61.2457C6.96377 61.0413 6.67967 60.913 6.37719 60.8791C6.07472 60.8451 5.76924 60.9073 5.50411 61.0567C5.38218 61.1236 5.27821 61.219 5.20102 61.3346C5.04113 61.5889 5.08145 61.9182 4.99803 62.2059C4.91461 62.4935 4.7297 62.7089 4.57259 62.9493C4.41548 63.1897 4.28479 63.4745 4.34458 63.7552C4.38768 63.9595 4.5281 64.1429 4.52532 64.3513C4.51976 64.4674 4.47057 64.5771 4.38757 64.6585C4.30457 64.74 4.19388 64.787 4.07764 64.7904C4.28376 64.9173 4.51745 64.9926 4.75889 65.01C5.0022 65.0447 5.28305 65.0558 5.45405 64.8807C5.58196 64.7501 5.61255 64.5472 5.74185 64.4166C5.82198 64.3495 5.9176 64.3034 6.02005 64.2825C6.1225 64.2617 6.22854 64.2667 6.32857 64.2971C6.53155 64.3444 6.71925 64.4361 6.92223 64.4958C6.97526 64.5122 7.03104 64.5179 7.08629 64.5125C7.26008 64.4889 7.36436 64.2957 7.37548 64.1207C7.3866 63.9817 7.36575 63.808 7.46863 63.7038C7.50796 63.6707 7.55032 63.6414 7.59515 63.6162C7.67468 63.5616 7.73764 63.4862 7.77713 63.3982C7.81661 63.3102 7.83109 63.2131 7.81899 63.1174C7.77033 62.7728 7.40189 62.5616 7.29901 62.2225C7.24201 62.028 7.28511 61.8196 7.28233 61.6181C7.27955 61.4166 7.20169 61.1845 7.01121 61.1165" fill="#444053"/>
<path opacity="0.1" d="M7.80093 63.1174C7.75365 62.7728 7.38383 62.5616 7.28095 62.2225C7.22394 62.028 7.26843 61.8196 7.26426 61.6181C7.26688 61.4773 7.22397 61.3394 7.14191 61.2249L7.17111 61.2457C7.15582 61.2304 7.13913 61.2165 7.12245 61.2026C7.09895 61.1779 7.0723 61.1564 7.0432 61.1387L6.99037 61.1026L7.01818 61.129L6.98898 61.1081C7.07122 61.2225 7.11414 61.3605 7.11133 61.5014C7.11133 61.7029 7.07101 61.9182 7.12801 62.1044C7.22672 62.4393 7.60072 62.6603 7.64799 63.0007C7.65994 63.0964 7.64538 63.1935 7.60591 63.2814C7.56644 63.3694 7.50357 63.4448 7.42415 63.4995C7.37932 63.5247 7.33695 63.554 7.29763 63.5871C7.19475 63.6899 7.2156 63.865 7.20448 64.0039C7.19057 64.179 7.09047 64.3722 6.91668 64.3958C6.86097 64.4007 6.80484 64.395 6.75123 64.3791C6.54964 64.3263 6.36055 64.2277 6.15757 64.1804C6.05757 64.1497 5.95147 64.1446 5.84898 64.1655C5.74648 64.1863 5.65085 64.2326 5.57085 64.2999C5.44294 64.4292 5.41096 64.6334 5.28305 64.764C5.11065 64.9377 4.82981 64.928 4.58789 64.8933C4.42864 64.8753 4.27194 64.8394 4.12074 64.7863C4.10041 64.7883 4.07991 64.7883 4.05957 64.7863C4.26586 64.9128 4.49946 64.988 4.74083 65.0058C4.98413 65.0405 5.26498 65.0517 5.43599 64.8766C5.5639 64.746 5.59588 64.5431 5.72378 64.4125C5.80391 64.3453 5.89954 64.2993 6.00199 64.2784C6.10444 64.2575 6.21048 64.2625 6.3105 64.293C6.51349 64.3402 6.70257 64.4319 6.90417 64.4917C6.95764 64.5083 7.01391 64.514 7.06962 64.5084C7.24341 64.4847 7.34768 64.2916 7.35741 64.1165C7.36854 63.9775 7.34768 63.8039 7.45057 63.6996C7.48989 63.6665 7.53225 63.6372 7.57708 63.6121C7.65594 63.5578 7.71846 63.4831 7.75791 63.3959C7.79736 63.3087 7.81224 63.2124 7.80093 63.1174Z" fill="black"/>
<path opacity="0.1" d="M12.275 79.7128C12.4974 80.4534 9.50683 80.9328 5.98515 80.7967C2.82773 80.6758 0.351564 80.0949 0.169432 79.4877C-0.0127003 78.8804 2.13952 78.3858 5.2594 78.376C8.73937 78.376 12.0525 78.9722 12.275 79.7128Z" fill="#0452C7"/>
</g>
<defs>
<linearGradient id="paint0_linear_161_1558" x1="108.431" y1="84.5428" x2="108.431" y2="53.1321" gradientUnits="userSpaceOnUse">
<stop stop-color="#808080" stop-opacity="0.25"/>
<stop offset="0.54" stop-color="#808080" stop-opacity="0.12"/>
<stop offset="1" stop-color="#808080" stop-opacity="0.1"/>
</linearGradient>
<linearGradient id="paint1_linear_161_1558" x1="851.855" y1="14351.3" x2="851.855" y2="11544.4" gradientUnits="userSpaceOnUse">
<stop stop-color="#808080" stop-opacity="0.25"/>
<stop offset="0.54" stop-color="#808080" stop-opacity="0.12"/>
<stop offset="1" stop-color="#808080" stop-opacity="0.1"/>
</linearGradient>
<clipPath id="clip0_161_1558">
<rect width="151" height="85" fill="white"/>
</clipPath>
</defs>
</svg>
