<svg width="194" height="133" viewBox="0 0 194 133" fill="none" xmlns="http://www.w3.org/2000/svg">
<path opacity="0.1" d="M112.719 21.9288C100.282 21.4876 88.4353 17.3744 77.1246 12.8749C65.814 8.37546 54.608 3.38844 42.4698 1.00394C34.6615 -0.529071 25.7322 -0.745375 19.4416 3.54123C13.3862 7.66131 11.4307 14.7925 10.38 21.3949C9.58853 26.3733 9.12326 31.6007 11.2899 36.2564C12.7956 39.4889 15.4688 42.2047 17.3178 45.3C23.7475 56.0723 19.2064 69.3561 12.2325 79.8743C8.97046 84.8081 5.17105 89.5153 2.64898 94.7667C0.126918 100.018 -1.04055 106.037 1.16562 111.395C3.35461 116.706 8.567 120.694 14.2137 123.499C25.6841 129.199 39.2009 130.829 52.3812 131.753C81.5576 133.798 110.89 132.912 140.144 132.026C150.97 131.696 161.843 131.365 172.494 129.65C178.407 128.697 184.512 127.187 188.805 123.537C194.256 118.902 195.607 111.062 191.953 105.254C185.833 95.5152 168.892 93.098 164.611 82.6399C162.253 76.8855 164.674 70.4754 168.099 65.1296C175.447 53.6809 187.764 43.6365 188.413 30.5484C188.86 21.5597 182.938 12.5573 173.784 8.30507C164.187 3.84165 150.881 4.40816 143.801 11.7865C136.511 19.3967 123.7 22.3202 112.719 21.9288Z" fill="#0452C7"/>
<path d="M69.7061 65.8718L60.8015 56.9672C60.4761 56.6418 60.0915 56.5826 59.8844 56.5826C59.6773 56.5826 59.2927 56.6418 58.9673 56.9672L50.0331 65.9013C49.0273 66.9072 47.4594 68.5343 42.2231 68.5343L53.1986 79.4801C54.8626 81.1421 57.1183 82.0756 59.4702 82.0756C61.8221 82.0756 64.0778 81.1421 65.7419 79.4801L76.7469 68.5047C74.0548 68.5047 71.8065 67.9722 69.7061 65.8718V65.8718ZM50.0331 39.0988L58.9673 48.033C59.204 48.2697 59.559 48.4176 59.8844 48.4176C60.2098 48.4176 60.5648 48.2697 60.8015 48.033L69.6469 39.1876C71.7473 36.9984 74.1436 36.4955 76.8357 36.4955L65.8307 25.5201C64.1666 23.8581 61.9109 22.9246 59.559 22.9246C57.2071 22.9246 54.9514 23.8581 53.2873 25.5201L42.3119 36.4659C47.5186 36.4659 49.1161 38.1818 50.0331 39.0988V39.0988Z" fill="#0342A1"/>
<path d="M86.4505 46.1398L79.7943 39.4539H76.0668C74.4693 39.4539 72.8717 40.1048 71.7772 41.2585L62.9022 50.1335C62.0738 50.9619 60.9793 51.376 59.8847 51.376C58.7575 51.3602 57.6787 50.9159 56.8672 50.1335L47.933 41.1698C46.8088 40.0456 45.2705 39.3948 43.6434 39.3948H39.2947L32.5201 46.1989C30.8581 47.863 29.9246 50.1187 29.9246 52.4706C29.9246 54.8225 30.8581 57.0782 32.5201 58.7423L39.2947 65.5464H43.673C45.2705 65.5464 46.8088 64.8956 47.9626 63.7714L56.8968 54.8373C57.7251 54.0089 58.8197 53.5948 59.9143 53.5948C61.0088 53.5948 62.1034 54.0089 62.9317 54.8373L71.8363 63.7419C72.9605 64.866 74.4988 65.5169 76.1259 65.5169H79.8534L86.5097 58.831C88.1786 57.137 89.1093 54.8512 89.0982 52.4732C89.0871 50.0951 88.1352 47.8182 86.4505 46.1398V46.1398Z" fill="#0342A1"/>
<g clip-path="url(#clip0_102_47)">
<path d="M148.036 57.073L106.872 52.5102C106.092 52.4238 105.31 52.6507 104.697 53.141C104.085 53.6313 103.692 54.3448 103.605 55.1247L97.739 108.051C97.6526 108.83 97.8795 109.613 98.3698 110.225C98.8601 110.838 99.5736 111.23 100.353 111.317L141.518 115.88C142.298 115.966 143.08 115.739 143.693 115.249C144.305 114.759 144.698 114.045 144.784 113.265L150.651 60.3393C150.737 59.5595 150.51 58.7772 150.02 58.1647C149.53 57.5522 148.816 57.1595 148.036 57.073V57.073Z" stroke="#0342A1" stroke-width="4" stroke-linecap="round" stroke-linejoin="round"/>
<path d="M112.926 91.8752L133.508 94.1566" stroke="#0342A1" stroke-width="4" stroke-linecap="round" stroke-linejoin="round"/>
<path d="M111.948 100.696L122.239 101.837" stroke="#0342A1" stroke-width="4" stroke-linecap="round" stroke-linejoin="round"/>
<path d="M134.808 69.0009L121.743 79.4585L116.515 72.9261" stroke="#0342A1" stroke-width="4" stroke-linecap="round" stroke-linejoin="round"/>
</g>
<defs>
<clipPath id="clip0_102_47">
<rect width="71" height="71" fill="white" transform="translate(92.8219 45) rotate(6.32501)"/>
</clipPath>
</defs>
</svg>
