<svg width="194" height="138" viewBox="0 0 194 138" fill="none" xmlns="http://www.w3.org/2000/svg">
<path opacity="0.1" d="M112.719 21.9288C100.282 21.4876 88.4353 17.3744 77.1246 12.8749C65.814 8.37546 54.608 3.38844 42.4698 1.00394C34.6615 -0.529071 25.7322 -0.745375 19.4416 3.54123C13.3862 7.66131 11.4307 14.7925 10.38 21.3949C9.58853 26.3733 9.12326 31.6007 11.2899 36.2564C12.7956 39.4889 15.4688 42.2047 17.3178 45.3C23.7475 56.0723 19.2064 69.3561 12.2325 79.8743C8.97046 84.8081 5.17105 89.5153 2.64898 94.7667C0.126918 100.018 -1.04055 106.037 1.16562 111.395C3.35461 116.706 8.567 120.694 14.2137 123.499C25.6841 129.199 39.2009 130.829 52.3812 131.753C81.5576 133.798 110.89 132.912 140.144 132.026C150.97 131.696 161.843 131.365 172.494 129.65C178.407 128.697 184.512 127.187 188.805 123.537C194.256 118.902 195.607 111.062 191.953 105.254C185.833 95.5152 168.892 93.098 164.611 82.6399C162.253 76.8855 164.674 70.4754 168.099 65.1296C175.447 53.6809 187.764 43.6365 188.413 30.5484C188.86 21.5597 182.938 12.5573 173.784 8.30507C164.187 3.84165 150.881 4.40816 143.801 11.7865C136.511 19.3967 123.7 22.3202 112.719 21.9288Z" fill="#0452C7"/>
<path d="M28.833 70.0424C29.0363 68.7051 29.7626 67.5033 30.852 66.7014C31.9414 65.8996 33.3047 65.5633 34.642 65.7666L64.8967 70.3663C66.234 70.5696 67.4358 71.2959 68.2377 72.3853C69.0395 73.4747 69.3758 74.838 69.1725 76.1754L68.7892 78.6966L28.4497 72.5637L28.833 70.0424ZM27.6831 77.6061L25.7665 90.2122C25.5632 91.5495 25.8995 92.9129 26.7013 94.0023C27.5032 95.0917 28.705 95.8179 30.0423 96.0212L60.297 100.621C61.6343 100.824 62.9976 100.488 64.087 99.6861C65.1764 98.8843 65.9027 97.6825 66.106 96.3451L68.0226 83.739L27.6831 77.6061ZM34.4801 83.7985L37.0013 84.1818C37.67 84.2834 38.2709 84.6465 38.6718 85.1913C39.0728 85.736 39.2409 86.4176 39.1392 87.0863L38.7559 89.6075C38.6543 90.2762 38.2911 90.8771 37.7464 91.278C37.2017 91.6789 36.5201 91.8471 35.8514 91.7454L33.3302 91.3621C32.6615 91.2605 32.0606 90.8973 31.6597 90.3526C31.2587 89.8079 31.0906 89.1263 31.1923 88.4576L31.5756 85.9364C31.6772 85.2677 32.0404 84.6668 32.5851 84.2659C33.1298 83.8649 33.8114 83.6968 34.4801 83.7985V83.7985Z" fill="#0342A1"/>
<path d="M78.5436 43.7284L72.3982 37.5829C72.1736 37.3584 71.9082 37.3175 71.7653 37.3175C71.6224 37.3175 71.357 37.3584 71.1324 37.5829L64.9665 43.7488C64.2724 44.4429 63.1903 45.5659 59.5765 45.5659L67.1511 53.12C68.2996 54.267 69.8563 54.9113 71.4795 54.9113C73.1026 54.9113 74.6593 54.267 75.8078 53.12L83.4028 45.5454C81.5449 45.5454 79.9932 45.1779 78.5436 43.7284V43.7284ZM64.9665 25.2513L71.1324 31.4171C71.2957 31.5804 71.5407 31.6825 71.7653 31.6825C71.9899 31.6825 72.2349 31.5804 72.3982 31.4171L78.5028 25.3125C79.9524 23.8017 81.6061 23.4546 83.464 23.4546L75.869 15.88C74.7206 14.733 73.1638 14.0887 71.5407 14.0887C69.9176 14.0887 68.3608 14.733 67.2124 15.88L59.6378 23.4342C63.2311 23.4342 64.3336 24.6184 64.9665 25.2513V25.2513Z" fill="#0342A1"/>
<path d="M90.0997 30.1104L85.5059 25.4963H82.9334C81.8309 25.4963 80.7284 25.9454 79.973 26.7417L73.848 32.8667C73.2763 33.4384 72.5209 33.7242 71.7655 33.7242C70.9876 33.7132 70.2431 33.4067 69.683 32.8667L63.5172 26.6804C62.7413 25.9046 61.6797 25.4554 60.5567 25.4554H57.5555L52.8801 30.1513C51.7331 31.2997 51.0888 32.8565 51.0888 34.4796C51.0888 36.1027 51.7331 37.6595 52.8801 38.8079L57.5555 43.5038H60.5772C61.6797 43.5038 62.7413 43.0546 63.5376 42.2788L69.7034 36.1129C70.2751 35.5413 71.0305 35.2554 71.7859 35.2554C72.5413 35.2554 73.2967 35.5413 73.8684 36.1129L80.0138 42.2584C80.7897 43.0342 81.8513 43.4834 82.9742 43.4834H85.5467L90.1405 38.8692C91.2923 37.7001 91.9346 36.1226 91.9269 34.4814C91.9193 32.8402 91.2623 31.2688 90.0997 30.1104V30.1104Z" fill="#0342A1"/>
<g clip-path="url(#clip0_102_49)">
<path d="M155.353 50.7726L101.574 44.8116C100.555 44.6987 99.5333 44.9951 98.733 45.6357C97.9328 46.2762 97.4198 47.2084 97.3069 48.2272L89.6427 117.371C89.5298 118.39 89.8262 119.412 90.4667 120.212C91.1073 121.013 92.0395 121.526 93.0583 121.638L146.837 127.599C147.856 127.712 148.878 127.416 149.678 126.775C150.478 126.135 150.991 125.203 151.104 124.184L158.768 55.0398C158.881 54.021 158.585 52.9991 157.944 52.1988C157.304 51.3986 156.372 50.8856 155.353 50.7726V50.7726Z" stroke="#0342A1" stroke-width="4" stroke-linecap="round" stroke-linejoin="round"/>
<path d="M109.483 96.2394L136.373 99.2199" stroke="#0342A1" stroke-width="4" stroke-linecap="round" stroke-linejoin="round"/>
<path d="M108.206 107.763L121.651 109.254" stroke="#0342A1" stroke-width="4" stroke-linecap="round" stroke-linejoin="round"/>
<path d="M138.071 66.3555L121.003 80.0177L114.172 71.4835" stroke="#0342A1" stroke-width="4" stroke-linecap="round" stroke-linejoin="round"/>
</g>
<defs>
<clipPath id="clip0_102_49">
<rect width="92.7568" height="92.7568" fill="white" transform="translate(83.2189 35) rotate(6.32501)"/>
</clipPath>
</defs>
</svg>
