<svg width="47" height="46" viewBox="0 0 47 46" fill="none" xmlns="http://www.w3.org/2000/svg">
<g clip-path="url(#clip0_100_552)">
<path d="M37.0712 3.72672C36.4984 3.72672 35.9403 3.94594 35.529 4.35203C32.0187 7.78766 28.9417 8.43813 24.4877 8.43813C23.1365 8.43813 21.653 8.37344 20.0815 8.30516C18.8477 8.25125 17.5699 8.19375 16.1856 8.16141C15.9433 8.15422 15.7083 8.15063 15.4733 8.15063C4.20794 8.15063 0.60583 14.8206 0.458955 15.1045C0.26893 15.4692 0.189912 15.8796 0.231299 16.2869L2.6988 40.347C2.73998 40.738 2.8902 41.1105 3.13304 41.4236C3.37589 41.7367 3.70201 41.9784 4.07575 42.1223C4.3286 42.2188 4.59749 42.2688 4.86888 42.2697C5.39396 42.2697 5.91169 42.0828 6.31927 41.7306C6.35599 41.6983 10.8834 37.9069 18.117 37.9069C19.0423 37.9069 19.986 37.968 20.9186 38.0902C24.3225 38.5322 26.8047 38.7298 28.9784 38.7298C35.9293 38.7298 41.0699 36.5377 46.1701 31.4058C46.4431 31.1312 46.6355 30.7898 46.7272 30.4174C46.819 30.0449 46.8067 29.6552 46.6915 29.2891L39.1605 5.2325C39.0498 4.88004 38.8479 4.56153 38.5746 4.30781C38.3012 4.05408 37.9655 3.87373 37.6 3.78422C37.4237 3.74828 37.2475 3.72672 37.0712 3.72672Z" fill="#003192"/>
<path d="M25.494 28.9944C25.5858 29.3106 25.7143 29.5802 25.8979 29.7598C26.467 30.3169 27.2344 30.148 27.9211 30.1192C28.5343 30.0905 29.1291 30.36 29.746 30.4175C31.4865 30.5756 33.1902 31.032 34.8389 31.6645C36.6601 32.3617 38.5879 32.8145 40.5193 32.7894C42.7922 32.7606 45.2964 32.7139 46.9524 30.9278C47.3416 30.5073 47.8263 29.9108 47.7565 29.3358C47.639 28.3619 47.0662 27.352 46.699 26.4177C46.5007 25.9109 46.3943 25.3683 46.1152 24.8759C46.0601 24.7789 45.8361 24.3009 45.7554 24.2686C45.6232 24.2183 45.3551 24.5417 45.245 24.6172C44.7419 24.9586 44.2058 25.2497 43.6697 25.5408C43.0529 25.875 42.4213 26.2775 41.7016 26.3602C40.9819 26.4428 40.2806 26.4859 39.5462 26.4392C37.9379 26.335 36.348 25.9756 34.8205 25.4941C32.2906 24.6927 29.4486 23.4672 26.7828 24.0278C26.5294 24.0817 26.2834 24.1572 26.0447 24.265C25.6812 24.4267 25.3471 24.5381 25.2149 24.9586C25.079 25.4006 25.2002 26.0152 25.2296 26.4608C25.2736 27.1041 25.2626 28.193 25.494 28.9944Z" fill="white"/>
<path d="M25.7472 28.0959C25.9051 28.0959 26.2025 27.8731 26.3604 27.8408C27.8292 27.5353 29.2943 27.5209 30.763 27.8372C32.2758 28.1606 33.7372 28.7248 35.217 29.1956C36.66 29.652 38.1398 29.9898 39.6343 30.1192C40.8974 30.227 42.1018 30.1444 43.3392 29.8641C44.3049 29.6412 45.0136 29.1705 45.7479 28.5452C46.0453 28.2936 46.3464 28.0312 46.6512 27.8048C46.721 27.7509 46.8348 27.6647 46.8899 27.6036C47.0404 27.4311 46.9743 27.4275 46.9009 27.2298C46.7871 26.9172 46.71 26.5722 46.5704 26.2667C46.4603 26.0259 46.2546 25.8355 46.1261 25.6019C45.9829 25.3503 45.9021 25.1562 45.6121 25.3431C45.4211 25.4653 45.3 25.6773 45.12 25.8103C44.3159 26.4212 43.1519 27.0969 42.1091 27.3556C41.786 27.4347 41.4408 27.4491 41.1104 27.4742C39.0211 27.6323 36.6968 27.1652 34.6919 26.5327C32.162 25.7312 29.3236 24.5058 26.6579 25.0628C26.4045 25.1167 26.1585 25.1958 25.9198 25.3C25.4204 25.5264 24.8843 25.8427 25.0532 26.5434C25.1414 26.8956 25.2919 28.0241 25.7472 28.0959Z" fill="#F52933"/>
<path d="M3.19093 11.4138C3.19827 11.4102 3.21296 11.4066 3.2203 11.403C4.10523 11.0795 4.97546 10.9897 5.91179 10.9609C6.82241 10.9322 7.74038 11.0077 8.63632 11.1622C11.4673 11.6545 13.7843 12.783 16.193 14.5152C18.1428 15.9167 19.9604 16.8223 19.9934 19.7009C20.0081 20.6892 19.7254 21.7961 18.8074 22.1159C17.838 22.4502 16.5382 22.7484 15.5872 22.2669C14.6288 21.7817 14.0119 20.6389 13.1013 20.0567C11.673 19.1439 9.9839 18.1736 8.34991 17.8681C7.23734 17.6597 6.1064 17.4872 4.97913 17.3758C4.06851 17.2859 3.1689 17.5555 2.35007 17.9148C2.01226 18.0658 1.65609 18.2023 1.34398 18.3928C1.06491 18.5617 0.723429 18.6983 0.473742 18.8995C0.238742 19.0864 0.0478042 19.3344 -0.172508 19.5464C-0.121102 19.187 -0.323055 18.7917 -0.363446 18.4395C-0.418524 17.9616 -0.477274 17.4656 -0.48829 16.9877C-0.502977 16.1719 -0.844461 15.3705 -0.752665 14.5798C-0.72329 14.3355 -0.737977 14.0588 -0.679227 13.8216C-0.60579 13.5341 -0.278993 13.3903 -0.0623521 13.2214C0.348898 12.9052 0.782179 12.6284 1.20077 12.3266C1.53124 12.0894 1.86171 11.9888 2.23624 11.8342C2.56304 11.7084 2.86046 11.5359 3.19093 11.4138Z" fill="white"/>
<path d="M17.5553 19.7477C17.3349 19.4386 17.1367 19.1152 16.8943 18.8277C14.805 16.3372 12.1099 14.1953 9.0365 13.6239C7.92025 13.4191 6.78931 13.243 5.66205 13.1316C3.78572 12.9483 1.35127 13.8216 -0.0477175 15.0506C-0.359827 15.3273 -0.234983 15.8916 -0.234983 16.2977C-0.234983 16.5852 -0.26803 16.8906 -0.234983 17.1745C-0.216624 17.3255 -0.216624 17.7208 -0.0587331 17.7675C-0.0183425 17.7819 1.43572 16.8331 1.65603 16.7325C2.68783 16.2653 3.92525 15.7298 5.08924 15.8448C6.2165 15.9563 7.34744 16.1288 8.46369 16.3372C9.70845 16.5672 10.9422 16.9841 12.0511 17.6705C13.2371 18.4 14.1147 19.5716 15.0033 20.6928C15.1685 20.9013 15.3081 21.3253 15.521 21.4439C15.8772 21.6452 16.3545 21.4259 16.6924 21.2678C16.8686 21.1852 17.0412 21.0881 17.2211 21.0127C17.3276 20.9695 17.9738 20.8294 18.0069 20.7467C18.106 20.5059 17.7792 20.0459 17.6434 19.8663C17.6103 19.8303 17.581 19.7872 17.5553 19.7477Z" fill="#F52933"/>
<path d="M24.6971 17.6777C24.7962 17.6345 24.899 17.595 24.9835 17.5555C25.6408 17.2644 26.2613 16.8763 26.8672 16.445C29.6982 14.4253 32.2685 11.8055 33.6161 8.2836C33.9098 7.51813 34.2366 6.77063 34.5157 6.00157C34.736 5.39422 34.7323 4.85157 35.1693 4.42032C35.6209 3.9675 36.0505 3.47875 36.5646 3.11219C37.108 2.72407 37.7176 2.3611 38.305 2.08078C38.3932 2.43297 38.6465 2.69891 38.7567 3.06907C38.8999 3.54344 38.9917 4.02141 39.1055 4.49578C39.2818 5.22172 39.4066 5.9261 39.5461 6.65203C39.8142 8.03922 38.9072 9.82891 38.4593 11.0939C37.5927 13.5484 36.3333 15.888 34.5708 17.6525C33.7519 18.4719 32.8523 19.2194 31.9343 19.9238C31.2808 20.4269 30.6639 20.8617 29.9479 21.2427C29.5623 21.4475 29.1511 21.6164 28.7729 21.8356C27.9247 22.3388 26.4119 22.8059 25.8133 21.5948C25.5086 20.9767 25.1854 20.3083 24.8329 19.7297C24.5686 19.2948 24.0104 18.7198 24.183 18.1269C24.2418 17.9077 24.4694 17.7783 24.6971 17.6777Z" fill="white"/>
<path d="M26.2246 20.9659C26.4009 20.9228 26.5734 20.8509 26.7313 20.797C27.4143 20.567 28.0606 20.1106 28.6627 19.6794C31.4938 17.6633 34.0604 15.0434 35.4116 11.518C36.0175 9.92953 36.6858 8.36984 37.1668 6.7275C37.299 6.27469 38.3124 2.2964 37.3871 2.46531C36.851 2.56594 36.3113 3.08344 36.0836 3.62969C35.9477 3.95312 35.8229 4.38078 35.7495 4.74015C35.6944 5.01687 35.632 5.27562 35.5512 5.54875C35.3933 6.07703 35.1987 6.59812 35.0077 7.11562C34.725 7.88469 34.4019 8.63219 34.1081 9.39765C32.7569 12.9195 30.1902 15.543 27.3556 17.5591C26.7901 17.9616 26.1989 18.3389 25.5784 18.6228C25.0313 18.8744 24.5906 19.0505 24.9138 19.8555C25.0239 20.1322 25.1891 20.3586 25.3177 20.6209C25.5306 21.0486 25.8758 21.0522 26.2246 20.9659Z" fill="#F52933"/>
<path d="M5.90077 35.1325C7.65959 31.8766 10.0794 28.9189 13.0389 26.6297C14.7573 25.3 16.5308 23.8122 18.5724 23.2084C18.8515 23.1258 19.5675 22.903 19.8429 23.0791C20.1256 23.2552 20.368 24.4842 20.4744 24.8795C20.6801 25.645 20.8012 26.4105 20.9958 27.1759C21.0876 27.5389 21.4144 28.193 21.341 28.5488C20.8049 28.635 20.4524 28.8291 19.964 29.0842C19.3435 29.4077 18.6936 29.5909 18.1098 29.9863C17.0412 30.7158 16.0902 31.5388 15.1796 32.4803C14.2983 33.3931 13.5787 34.4569 12.9398 35.5494C12.5101 36.2825 12.2237 37.0444 11.9447 37.8386C11.7831 38.2986 11.6656 38.7694 11.6142 39.2473C11.5591 39.7325 11.5958 40.2536 11.4783 40.7316C11.2433 40.7998 10.979 40.8106 10.755 40.8897C10.542 40.9616 10.3254 41.1017 10.1198 41.188C9.52123 41.4431 8.95577 41.7773 8.34991 42.0397C7.86889 42.2481 7.43194 42.5284 6.95092 42.7333C6.40381 42.9705 5.831 43.107 5.25819 43.2723C4.82858 43.3981 4.421 43.585 3.99506 43.7072C3.82616 43.7539 3.63522 43.8366 3.49202 43.6928C3.37452 43.5742 3.41491 43.2867 3.41491 43.1358C3.41858 41.1988 3.83717 39.3731 4.63764 37.605C5.02686 36.7641 5.46014 35.9483 5.90077 35.1325Z" fill="white"/>
<path d="M20.1549 25.3863C19.8465 25.4617 19.538 25.5588 19.2443 25.6342C16.4941 26.3386 13.9788 28.2469 11.9299 30.3744C11.1588 31.1722 10.5016 32.103 9.91039 33.0769C9.61297 33.562 9.33391 34.0652 9.06586 34.5719C8.30578 36.0345 7.71828 37.8817 7.52 39.5169C7.47594 39.8619 7.46125 40.2141 7.46125 40.5663C7.46125 40.8609 7.42086 41.1916 7.47227 41.4827C7.72563 41.5689 8.07078 41.285 8.28008 41.17C8.5775 41.0083 8.88961 40.8825 9.19805 40.7495C9.56891 40.5878 9.96914 40.4117 10.2225 40.0919C10.4942 39.7505 10.553 39.3049 10.586 38.8916C10.7072 37.3858 11.2947 35.9663 12.0401 34.6545C12.7157 33.465 13.4831 32.297 14.4415 31.3052C15.3484 30.3636 16.3031 29.5406 17.3716 28.8111C17.9555 28.4158 18.6054 28.2289 19.2259 27.9091C19.6409 27.6934 20.0044 27.5102 20.4597 27.4706C20.7938 27.4383 21.128 27.4095 21.4621 27.352C21.6971 27.3125 22.0606 27.2981 22.2663 27.1472C22.5857 26.9064 22.2332 26.0906 22.0753 25.7995C21.866 25.4114 21.5429 25.2281 21.1427 25.2353C20.8159 25.2389 20.4817 25.3036 20.1549 25.3863Z" fill="#F52933"/>
<path d="M41.5584 20.5886C42.3662 19.8986 43.1227 19.1439 43.7652 18.3317C43.9378 18.1161 43.8791 18.0442 43.7873 17.807C43.6881 17.5411 43.6441 17.268 43.589 16.9913C43.4678 16.3588 43.1667 15.7586 42.9905 15.1405C42.8326 14.5834 42.6233 14.0192 42.4213 13.4766C42.3185 13.1963 42.19 12.9339 42.0762 12.6536C41.988 12.438 41.966 12.2331 41.7567 12.2691C41.5731 12.3014 41.3785 12.5781 41.2573 12.7039C41.0774 12.8908 40.8938 13.0956 40.7066 13.2789C40.3688 13.6095 40.0126 13.915 39.6564 14.2241C39.337 14.5008 39.1203 14.8242 38.8192 15.1153C38.3619 15.5561 37.8762 15.9678 37.3652 16.348C36.3517 17.1063 35.2575 17.7244 34.1229 18.2167C32.0997 19.0936 29.9516 19.5824 27.7962 19.7836C26.7241 19.8842 25.6482 19.913 24.576 19.8734C23.9371 19.8519 23.2652 19.7261 22.6262 19.7764C22.2334 19.8052 21.8405 19.6722 21.4476 19.6255C20.9739 19.5716 20.4929 19.5752 20.0192 19.5284C17.28 19.2553 14.5004 19.0289 11.7685 19.5356C10.2741 19.8124 8.81633 20.2616 7.41 20.8222C6.01102 21.3828 4.3807 21.9794 3.09922 22.77C2.55211 23.1078 2.06008 23.5247 1.52398 23.8805C1.23758 24.0674 0.572968 24.2902 0.407734 24.592C0.290234 24.8077 0.371015 25.4689 0.393046 25.6917C0.433437 26.1445 0.543593 26.5938 0.587656 27.0466C0.63539 27.5533 0.583984 28.0744 0.642734 28.5811C0.7125 29.1633 0.903437 29.7347 0.899765 30.3205C0.899765 30.6188 0.738203 31.6502 1.08703 31.7472C1.45055 31.8442 2.53742 30.7194 2.81281 30.5038C5.56672 28.3799 8.88242 26.9424 12.3303 26.2991C15.0622 25.7924 17.8418 26.0224 20.581 26.2919C21.0547 26.3386 21.532 26.335 22.0094 26.3889C22.3986 26.4356 22.7915 26.5686 23.188 26.5399C23.827 26.4895 24.4989 26.6153 25.1378 26.6369C26.21 26.6764 27.2895 26.6477 28.358 26.547C30.5171 26.3494 32.6615 25.8606 34.6847 24.9802C37.1669 23.8984 39.5095 22.3316 41.5584 20.5886Z" fill="white"/>
<path d="M30.7484 35.4344C29.5661 32.085 28.6444 28.5739 27.7265 25.1706C26.8011 21.7278 25.9236 18.2706 25.068 14.8063C24.5062 12.5314 23.9922 10.2494 23.6103 7.9386C23.5625 7.64032 23.3973 7.34563 23.401 7.04376C23.0522 7.09766 22.74 7.10485 22.3802 7.16594C21.2015 7.36001 19.8907 7.34204 18.7047 7.19829C18.0841 7.12282 17.4415 7.1336 16.8136 7.01141C16.4097 6.93235 15.7047 6.99344 15.389 6.76704C15.3229 7.08329 15.4587 7.3636 15.4624 7.67985C15.5211 9.92594 16.2188 12.2834 16.608 14.4972C17.28 18.3138 17.9813 22.1339 18.7487 25.9361C19.0939 27.6503 19.4537 29.3645 19.8319 31.0716C20.1183 32.3725 20.379 33.6806 20.6691 34.9816C20.8454 35.7758 21.1538 36.5341 21.4182 37.3031C21.543 37.6733 21.6789 38.0578 21.767 38.4352C21.8404 38.7478 21.8331 39.0964 22.0608 39.3552C22.3398 39.6786 22.7768 39.4953 23.1954 39.5349C24.4475 39.6463 25.7326 39.6606 27.0068 39.6319C27.5832 39.6211 28.145 39.4953 28.7142 39.4414C29.2025 39.3911 29.7093 39.4917 30.2013 39.4486C30.9393 39.3839 31.6443 39.4881 32.3897 39.3372C32.3934 38.6292 31.4607 37.3678 31.2037 36.6922C31.0532 36.2753 30.8989 35.8549 30.7484 35.4344Z" fill="white"/>
<path d="M22.7363 12.8009C22.4279 11.4066 22.1231 10.0086 21.833 8.60703C21.7192 8.06437 21.7559 7.4175 21.0546 7.40312C20.3716 7.38875 19.674 7.27375 18.9983 7.14797C18.3374 7.02578 17.57 6.66641 16.9017 6.77062C16.8687 6.785 18.0106 12.4416 18.0877 12.7937C18.6165 15.2411 19.2554 17.6669 19.8759 20.0927C20.5001 22.522 21.2272 24.9227 21.7596 27.3772C22.2957 29.8425 22.6298 32.3438 23.254 34.7875C23.5368 35.8944 23.893 36.9653 24.2051 38.0614C24.3115 38.4388 24.5796 38.9706 24.5723 39.3444C25.9345 39.5708 27.4804 39.2941 28.8169 39.1719C29.342 39.1252 29.8561 39.3228 30.3151 39.0569C29.9369 39.2725 28.3176 33.8423 28.1707 33.3105C27.4033 30.5505 26.4926 27.8336 25.7473 25.0664C24.6494 20.9911 23.6543 16.9086 22.7363 12.8009Z" fill="#F52933"/>
<path d="M41.496 18.9067C41.7677 18.6408 42.0357 18.3677 42.2818 18.0838C42.5718 17.7567 43.152 17.3794 43.1483 16.8942C43.1483 16.6894 43.0345 16.4558 43.0051 16.2438C42.9611 15.9275 42.8766 15.6184 42.7885 15.3094C42.66 14.8709 42.6967 14.4038 42.5314 13.9761C42.4433 13.7497 42.2561 13.3544 41.9513 13.5089C41.7787 13.5952 41.6612 13.8898 41.5547 14.0408C41.4262 14.2277 41.2867 14.4073 41.1471 14.5834C40.9305 14.8566 40.6698 15.0973 40.3907 15.3238C39.8657 15.7478 39.3883 16.2294 38.9036 16.7038C38.4448 17.1455 37.9579 17.5584 37.4459 17.94C36.4325 18.6947 35.3382 19.3128 34.2036 19.8052C32.1804 20.682 30.0361 21.1708 27.877 21.3684C26.8048 21.4691 25.7289 21.4942 24.6531 21.4583C24.0142 21.4331 23.3422 21.3109 22.7033 21.3613C22.3104 21.39 21.9139 21.257 21.5246 21.2103C21.0473 21.1564 20.57 21.16 20.0963 21.1097C17.3571 20.8402 14.5775 20.6102 11.8493 21.1169C9.30832 21.5877 6.82246 22.5652 4.50183 23.805C3.8666 24.1428 3.21668 24.5058 2.60348 24.8759C2.35012 25.0305 2.08941 25.1886 1.84707 25.3539C1.47621 25.6055 0.782225 25.8463 0.51785 26.2164C0.359959 26.4392 0.440741 27.0502 0.473787 27.3305C0.532537 27.8372 0.624334 28.3727 0.708787 28.8758C0.782225 29.3358 0.679413 29.7886 0.785897 30.2378C1.00988 30.3241 1.29629 29.9755 1.48355 29.8892C1.88746 29.7059 2.18488 29.44 2.54105 29.1992C2.90457 28.9548 3.29379 28.7248 3.66465 28.4841C4.47613 27.9594 5.30965 27.467 6.18355 27.0466C7.51277 26.4069 8.88238 25.8678 10.2814 25.4617C10.9533 25.2677 11.6289 25.1059 12.3119 24.9766C15.0438 24.4698 17.8197 24.6998 20.5589 24.9694C21.0326 25.0161 21.5136 25.0125 21.9873 25.0664C22.3765 25.1095 22.7694 25.2461 23.166 25.2138C23.8049 25.1634 24.4768 25.2892 25.1157 25.3108C26.1879 25.3503 27.2675 25.3216 28.336 25.2209C30.495 25.0197 32.6394 24.5309 34.6626 23.6541C35.7972 23.1617 36.8914 22.5436 37.9049 21.7889C39.1423 20.8761 40.3871 19.9813 41.496 18.9067Z" fill="#F52933"/>
</g>
<defs>
<clipPath id="clip0_100_552">
<rect width="47" height="46" fill="white"/>
</clipPath>
</defs>
</svg>
